<svg xmlns="http://www.w3.org/2000/svg" xmlns:xlink="http://www.w3.org/1999/xlink" width="100" zoomAndPan="magnify" viewBox="0 0 75 74.999997" height="100" preserveAspectRatio="xMidYMid meet" version="1.0"><defs><clipPath id="d03450c758"><path d="M 53 1.867188 L 67.65625 1.867188 L 67.65625 16 L 53 16 Z M 53 1.867188 " clip-rule="nonzero"/></clipPath><clipPath id="2a38ec98a2"><path d="M 14 1.867188 L 67.65625 1.867188 L 67.65625 73.117188 L 14 73.117188 Z M 14 1.867188 " clip-rule="nonzero"/></clipPath><clipPath id="f920bb5453"><path d="M 54 15 L 67.65625 15 L 67.65625 18 L 54 18 Z M 54 15 " clip-rule="nonzero"/></clipPath><clipPath id="c34909db09"><path d="M 5.40625 5 L 47 5 L 47 24 L 5.40625 24 Z M 5.40625 5 " clip-rule="nonzero"/></clipPath></defs><g clip-path="url(#d03450c758)"><path fill="#ffed9e" d="M 53.820312 1.867188 L 67.648438 15.65625 L 53.820312 15.65625 Z M 53.820312 1.867188 " fill-opacity="1" fill-rule="nonzero"/></g><g clip-path="url(#2a38ec98a2)"><path fill="#fdd734" d="M 67.648438 15.65625 L 67.648438 73.117188 L 14.636719 73.117188 L 14.636719 1.867188 L 53.820312 1.867188 L 53.820312 15.65625 Z M 67.648438 15.65625 " fill-opacity="1" fill-rule="nonzero"/></g><path fill="#ffbf00" d="M 16.941406 11.058594 L 16.941406 66.222656 C 16.941406 66.523438 16.972656 66.820312 17.03125 67.117188 C 17.089844 67.414062 17.175781 67.703125 17.292969 67.980469 C 17.410156 68.257812 17.550781 68.523438 17.71875 68.773438 C 17.886719 69.027344 18.078125 69.257812 18.292969 69.472656 C 18.507812 69.683594 18.738281 69.875 18.992188 70.042969 C 19.242188 70.210938 19.507812 70.351562 19.789062 70.46875 C 20.066406 70.582031 20.355469 70.671875 20.652344 70.730469 C 20.949219 70.789062 21.25 70.816406 21.550781 70.816406 L 60.734375 70.816406 C 61.035156 70.816406 61.335938 70.789062 61.632812 70.730469 C 61.929688 70.671875 62.21875 70.582031 62.496094 70.46875 C 62.777344 70.351562 63.042969 70.210938 63.292969 70.042969 C 63.546875 69.875 63.78125 69.683594 63.992188 69.472656 C 64.207031 69.257812 64.398438 69.027344 64.566406 68.773438 C 64.734375 68.523438 64.875 68.257812 64.992188 67.980469 C 65.109375 67.703125 65.195312 67.414062 65.253906 67.117188 C 65.3125 66.820312 65.34375 66.523438 65.34375 66.222656 L 65.34375 63.78125 C 16.941406 60.808594 16.941406 11.058594 16.941406 11.058594 Z M 16.941406 11.058594 " fill-opacity="1" fill-rule="nonzero"/><g clip-path="url(#f920bb5453)"><path fill="#ffbf00" d="M 54.972656 15.65625 L 67.648438 15.65625 L 67.648438 17.953125 L 54.972656 17.953125 Z M 54.972656 15.65625 " fill-opacity="1" fill-rule="nonzero"/></g><g clip-path="url(#c34909db09)"><path fill="#ffbf00" d="M 5.417969 5.3125 L 46.90625 5.3125 L 46.90625 23.699219 L 5.417969 23.699219 Z M 5.417969 5.3125 " fill-opacity="1" fill-rule="nonzero"/></g><path fill="#e89e00" d="M 14.636719 23.699219 L 44.601562 23.699219 L 44.601562 27.148438 L 14.636719 27.148438 Z M 14.636719 23.699219 " fill-opacity="1" fill-rule="nonzero"/><path fill="#ffffff" d="M 29.617188 20.253906 C 25.972656 20.253906 25.007812 18 25.007812 16.804688 L 26.160156 16.804688 L 27.3125 16.773438 C 27.328125 16.96875 27.5 17.953125 29.617188 17.953125 C 29.769531 17.953125 29.917969 17.925781 30.058594 17.867188 C 30.199219 17.808594 30.324219 17.726562 30.433594 17.617188 C 30.542969 17.511719 30.625 17.386719 30.683594 17.246094 C 30.742188 17.105469 30.769531 16.957031 30.769531 16.804688 C 30.769531 16.652344 30.742188 16.507812 30.683594 16.367188 C 30.625 16.226562 30.542969 16.101562 30.433594 15.992188 C 30.324219 15.886719 30.199219 15.800781 30.058594 15.742188 C 29.917969 15.6875 29.769531 15.65625 29.617188 15.65625 L 28.464844 15.65625 C 28.007812 15.65625 27.566406 15.570312 27.144531 15.394531 C 26.71875 15.21875 26.34375 14.96875 26.019531 14.648438 C 25.699219 14.324219 25.449219 13.949219 25.273438 13.527344 C 25.097656 13.105469 25.007812 12.667969 25.007812 12.207031 C 25.007812 11.75 25.097656 11.3125 25.273438 10.890625 C 25.449219 10.46875 25.699219 10.09375 26.019531 9.769531 C 26.34375 9.449219 26.71875 9.199219 27.144531 9.023438 C 27.566406 8.847656 28.007812 8.761719 28.464844 8.761719 C 32.113281 8.761719 33.074219 11.015625 33.074219 12.207031 L 30.769531 12.207031 C 30.757812 12.042969 30.585938 11.058594 28.464844 11.058594 C 28.3125 11.058594 28.167969 11.089844 28.023438 11.148438 C 27.882812 11.207031 27.757812 11.289062 27.652344 11.394531 C 27.542969 11.503906 27.460938 11.628906 27.402344 11.769531 C 27.34375 11.910156 27.3125 12.054688 27.3125 12.207031 C 27.3125 12.359375 27.34375 12.507812 27.402344 12.648438 C 27.460938 12.789062 27.542969 12.914062 27.652344 13.023438 C 27.757812 13.128906 27.882812 13.210938 28.023438 13.269531 C 28.167969 13.328125 28.3125 13.359375 28.464844 13.359375 L 29.617188 13.359375 C 30.078125 13.359375 30.519531 13.445312 30.941406 13.621094 C 31.363281 13.796875 31.738281 14.042969 32.0625 14.367188 C 32.386719 14.691406 32.636719 15.0625 32.8125 15.488281 C 32.988281 15.910156 33.074219 16.347656 33.074219 16.804688 C 33.074219 17.261719 32.988281 17.703125 32.8125 18.125 C 32.636719 18.546875 32.386719 18.921875 32.0625 19.242188 C 31.738281 19.566406 31.363281 19.816406 30.941406 19.992188 C 30.519531 20.164062 30.078125 20.253906 29.617188 20.253906 Z M 29.617188 20.253906 " fill-opacity="1" fill-rule="nonzero"/><path fill="#ffffff" d="M 20.398438 20.253906 C 19.941406 20.253906 19.5 20.164062 19.074219 19.992188 C 18.652344 19.816406 18.277344 19.566406 17.953125 19.242188 C 17.628906 18.921875 17.378906 18.546875 17.207031 18.125 C 17.03125 17.703125 16.941406 17.261719 16.941406 16.804688 L 16.941406 15.65625 L 19.246094 15.65625 L 19.246094 16.804688 C 19.246094 16.957031 19.277344 17.105469 19.335938 17.246094 C 19.394531 17.386719 19.476562 17.511719 19.585938 17.617188 C 19.691406 17.726562 19.816406 17.808594 19.957031 17.867188 C 20.097656 17.925781 20.246094 17.953125 20.398438 17.953125 C 20.550781 17.953125 20.699219 17.925781 20.839844 17.867188 C 20.980469 17.808594 21.105469 17.726562 21.214844 17.617188 C 21.320312 17.511719 21.40625 17.386719 21.464844 17.246094 C 21.523438 17.105469 21.550781 16.957031 21.550781 16.804688 L 21.550781 8.761719 L 23.855469 8.761719 L 23.855469 16.804688 C 23.855469 17.261719 23.769531 17.703125 23.59375 18.125 C 23.417969 18.546875 23.167969 18.921875 22.84375 19.242188 C 22.519531 19.566406 22.144531 19.816406 21.722656 19.992188 C 21.296875 20.164062 20.859375 20.253906 20.398438 20.253906 Z M 20.398438 20.253906 " fill-opacity="1" fill-rule="nonzero"/><path fill="#ffffff" d="M 33.074219 60.476562 L 31.921875 60.476562 C 31.546875 60.472656 31.171875 60.4375 30.800781 60.363281 C 30.429688 60.289062 30.070312 60.179688 29.71875 60.035156 C 29.371094 59.890625 29.039062 59.714844 28.722656 59.503906 C 28.410156 59.292969 28.117188 59.058594 27.851562 58.789062 C 27.582031 58.523438 27.34375 58.234375 27.132812 57.917969 C 26.925781 57.605469 26.746094 57.273438 26.601562 56.925781 C 26.457031 56.578125 26.347656 56.21875 26.273438 55.847656 C 26.199219 55.480469 26.160156 55.105469 26.160156 54.730469 L 26.160156 51.28125 C 26.113281 51.132812 25.867188 50.992188 25.6875 50.886719 C 25.136719 50.59375 24.640625 50.230469 24.191406 49.796875 C 24.082031 49.6875 24 49.5625 23.941406 49.421875 C 23.882812 49.28125 23.851562 49.136719 23.851562 48.984375 C 23.851562 48.832031 23.882812 48.683594 23.941406 48.542969 C 24 48.402344 24.082031 48.277344 24.191406 48.171875 C 24.640625 47.738281 25.136719 47.375 25.6875 47.078125 C 25.855469 46.992188 26.015625 46.886719 26.160156 46.769531 L 26.160156 43.238281 C 26.160156 42.859375 26.199219 42.488281 26.273438 42.117188 C 26.347656 41.746094 26.457031 41.386719 26.601562 41.039062 C 26.746094 40.691406 26.925781 40.359375 27.132812 40.046875 C 27.34375 39.734375 27.582031 39.441406 27.851562 39.175781 C 28.117188 38.910156 28.410156 38.671875 28.722656 38.460938 C 29.039062 38.253906 29.371094 38.074219 29.71875 37.929688 C 30.070312 37.785156 30.429688 37.675781 30.800781 37.601562 C 31.171875 37.527344 31.546875 37.492188 31.921875 37.492188 L 33.074219 37.492188 L 33.074219 39.789062 L 31.921875 39.789062 C 31.464844 39.789062 31.023438 39.878906 30.601562 40.050781 C 30.175781 40.226562 29.804688 40.476562 29.480469 40.800781 C 29.15625 41.121094 28.90625 41.496094 28.730469 41.917969 C 28.554688 42.339844 28.464844 42.78125 28.464844 43.238281 L 28.464844 46.683594 C 28.46875 47.179688 28.335938 47.632812 28.066406 48.050781 C 27.800781 48.46875 27.441406 48.777344 26.988281 48.984375 C 27.441406 49.1875 27.800781 49.5 28.066406 49.914062 C 28.335938 50.332031 28.46875 50.789062 28.464844 51.28125 L 28.464844 54.730469 C 28.464844 55.1875 28.554688 55.625 28.730469 56.046875 C 28.90625 56.472656 29.15625 56.84375 29.480469 57.167969 C 29.804688 57.488281 30.175781 57.738281 30.601562 57.914062 C 31.023438 58.089844 31.464844 58.175781 31.921875 58.175781 L 33.074219 58.175781 Z M 33.074219 60.476562 " fill-opacity="1" fill-rule="nonzero"/><path fill="#ffffff" d="M 50.363281 60.476562 L 49.210938 60.476562 L 49.210938 58.175781 L 50.363281 58.175781 C 50.820312 58.175781 51.261719 58.089844 51.683594 57.914062 C 52.109375 57.738281 52.484375 57.488281 52.808594 57.167969 C 53.132812 56.84375 53.378906 56.472656 53.554688 56.046875 C 53.730469 55.625 53.820312 55.1875 53.820312 54.730469 L 53.820312 51.28125 C 53.816406 50.789062 53.949219 50.332031 54.21875 49.914062 C 54.484375 49.5 54.84375 49.1875 55.296875 48.984375 C 54.84375 48.777344 54.484375 48.46875 54.21875 48.050781 C 53.949219 47.632812 53.816406 47.179688 53.820312 46.683594 L 53.820312 43.238281 C 53.820312 42.78125 53.730469 42.339844 53.554688 41.917969 C 53.378906 41.496094 53.132812 41.121094 52.808594 40.800781 C 52.484375 40.476562 52.109375 40.226562 51.683594 40.050781 C 51.261719 39.878906 50.820312 39.789062 50.363281 39.789062 L 49.210938 39.789062 L 49.210938 37.492188 L 50.363281 37.492188 C 50.742188 37.492188 51.113281 37.527344 51.484375 37.601562 C 51.855469 37.675781 52.214844 37.785156 52.566406 37.929688 C 52.914062 38.074219 53.246094 38.253906 53.5625 38.460938 C 53.875 38.671875 54.167969 38.910156 54.433594 39.175781 C 54.703125 39.441406 54.941406 39.734375 55.152344 40.046875 C 55.359375 40.359375 55.539062 40.691406 55.683594 41.039062 C 55.828125 41.386719 55.9375 41.746094 56.011719 42.117188 C 56.085938 42.488281 56.125 42.859375 56.125 43.238281 L 56.125 46.683594 C 56.171875 46.835938 56.417969 46.976562 56.597656 47.078125 C 57.148438 47.375 57.644531 47.738281 58.09375 48.171875 C 58.203125 48.277344 58.285156 48.402344 58.34375 48.542969 C 58.402344 48.683594 58.433594 48.832031 58.433594 48.984375 C 58.433594 49.136719 58.402344 49.28125 58.34375 49.421875 C 58.285156 49.5625 58.203125 49.6875 58.09375 49.796875 C 57.644531 50.230469 57.148438 50.59375 56.597656 50.886719 C 56.429688 50.976562 56.269531 51.078125 56.121094 51.195312 L 56.125 54.730469 C 56.125 55.105469 56.085938 55.480469 56.011719 55.847656 C 55.9375 56.21875 55.828125 56.578125 55.683594 56.925781 C 55.539062 57.273438 55.359375 57.605469 55.152344 57.917969 C 54.941406 58.234375 54.703125 58.523438 54.433594 58.789062 C 54.167969 59.058594 53.875 59.292969 53.5625 59.503906 C 53.246094 59.714844 52.914062 59.890625 52.566406 60.035156 C 52.214844 60.179688 51.855469 60.289062 51.484375 60.363281 C 51.113281 60.4375 50.742188 60.472656 50.363281 60.476562 Z M 50.363281 60.476562 " fill-opacity="1" fill-rule="nonzero"/><path fill="#ffffff" d="M 43.449219 43.238281 C 43.449219 43.542969 43.390625 43.835938 43.273438 44.117188 C 43.15625 44.398438 42.988281 44.648438 42.773438 44.863281 C 42.554688 45.078125 42.308594 45.242188 42.023438 45.359375 C 41.742188 45.476562 41.449219 45.535156 41.144531 45.535156 C 40.835938 45.535156 40.542969 45.476562 40.261719 45.359375 C 39.976562 45.242188 39.730469 45.078125 39.511719 44.863281 C 39.296875 44.648438 39.128906 44.398438 39.011719 44.117188 C 38.894531 43.835938 38.835938 43.542969 38.835938 43.238281 C 38.835938 42.933594 38.894531 42.640625 39.011719 42.359375 C 39.128906 42.074219 39.296875 41.828125 39.511719 41.613281 C 39.730469 41.394531 39.976562 41.230469 40.261719 41.113281 C 40.542969 40.996094 40.835938 40.9375 41.144531 40.9375 C 41.449219 40.9375 41.742188 40.996094 42.023438 41.113281 C 42.308594 41.230469 42.554688 41.394531 42.773438 41.613281 C 42.988281 41.828125 43.15625 42.074219 43.273438 42.359375 C 43.390625 42.640625 43.449219 42.933594 43.449219 43.238281 Z M 43.449219 43.238281 " fill-opacity="1" fill-rule="nonzero"/><path fill="#ffffff" d="M 38.835938 47.832031 L 42.296875 47.832031 L 38.835938 55.878906 L 36.53125 55.878906 Z M 38.835938 47.832031 " fill-opacity="1" fill-rule="nonzero"/><path fill="#e89e00" d="M 31.417969 19.746094 C 31.101562 20.261719 30.683594 20.664062 30.15625 20.957031 C 29.632812 21.253906 29.070312 21.402344 28.464844 21.402344 C 24.824219 21.402344 23.855469 19.148438 23.855469 17.953125 L 25.261719 17.953125 C 25.734375 19.058594 26.96875 20.253906 29.617188 20.253906 C 30.265625 20.253906 30.863281 20.085938 31.417969 19.746094 Z M 31.417969 19.746094 " fill-opacity="1" fill-rule="nonzero"/><path fill="#e89e00" d="M 30.769531 16.804688 C 30.769531 16.957031 30.742188 17.105469 30.683594 17.246094 C 30.625 17.386719 30.542969 17.511719 30.433594 17.617188 C 30.324219 17.726562 30.199219 17.808594 30.058594 17.867188 C 29.917969 17.925781 29.769531 17.953125 29.617188 17.953125 C 29.617188 17.800781 29.589844 17.65625 29.53125 17.515625 C 29.472656 17.375 29.390625 17.25 29.28125 17.140625 C 29.171875 17.035156 29.046875 16.953125 28.90625 16.894531 C 28.765625 16.835938 28.617188 16.804688 28.464844 16.804688 L 27.3125 16.804688 L 27.3125 16.769531 L 26.96875 16.78125 L 26.957031 16.78125 C 26.597656 16.746094 26.253906 16.652344 25.921875 16.507812 C 25.59375 16.359375 25.292969 16.167969 25.023438 15.929688 C 24.753906 15.691406 24.527344 15.414062 24.34375 15.105469 C 24.164062 14.796875 24.03125 14.464844 23.953125 14.113281 C 23.871094 13.761719 23.847656 13.40625 23.878906 13.050781 C 23.914062 12.691406 24 12.347656 24.140625 12.015625 C 24.277344 11.683594 24.464844 11.378906 24.703125 11.109375 C 24.9375 10.835938 25.207031 10.605469 25.515625 10.417969 C 25.191406 10.949219 25.023438 11.527344 25.011719 12.148438 C 25 12.769531 25.148438 13.355469 25.453125 13.898438 C 25.761719 14.441406 26.183594 14.867188 26.722656 15.183594 C 27.261719 15.5 27.839844 15.65625 28.464844 15.65625 L 29.617188 15.65625 C 29.769531 15.65625 29.917969 15.6875 30.058594 15.742188 C 30.199219 15.800781 30.324219 15.886719 30.433594 15.992188 C 30.542969 16.101562 30.625 16.226562 30.683594 16.367188 C 30.742188 16.507812 30.769531 16.652344 30.769531 16.804688 Z M 30.769531 16.804688 " fill-opacity="1" fill-rule="nonzero"/><path fill="#e89e00" d="M 31.921875 13.359375 L 29.617188 13.359375 C 29.605469 13.195312 29.433594 12.207031 27.3125 12.207031 C 27.3125 12.054688 27.34375 11.910156 27.402344 11.769531 C 27.460938 11.628906 27.542969 11.503906 27.652344 11.394531 C 27.757812 11.289062 27.882812 11.207031 28.023438 11.148438 C 28.167969 11.089844 28.3125 11.058594 28.464844 11.058594 C 30.585938 11.058594 30.757812 12.046875 30.769531 12.207031 L 31.667969 12.207031 C 31.835938 12.574219 31.917969 12.957031 31.921875 13.359375 Z M 31.921875 13.359375 " fill-opacity="1" fill-rule="nonzero"/><path fill="#e89e00" d="M 21.550781 9.910156 L 21.550781 16.804688 C 21.550781 16.957031 21.523438 17.105469 21.464844 17.246094 C 21.40625 17.386719 21.320312 17.511719 21.214844 17.617188 C 21.105469 17.726562 20.980469 17.808594 20.839844 17.867188 C 20.699219 17.925781 20.550781 17.953125 20.398438 17.953125 L 20.398438 9.910156 Z M 21.550781 9.910156 " fill-opacity="1" fill-rule="nonzero"/><path fill="#e89e00" d="M 22.195312 19.746094 C 22 20.066406 21.757812 20.347656 21.46875 20.589844 C 21.179688 20.832031 20.863281 21.023438 20.511719 21.160156 C 20.160156 21.296875 19.796875 21.375 19.421875 21.394531 C 19.042969 21.414062 18.675781 21.371094 18.3125 21.269531 C 17.949219 21.167969 17.613281 21.011719 17.300781 20.800781 C 16.992188 20.589844 16.722656 20.332031 16.492188 20.035156 C 16.265625 19.734375 16.089844 19.40625 15.972656 19.050781 C 15.851562 18.695312 15.789062 18.332031 15.789062 17.953125 L 15.789062 16.804688 L 16.941406 16.804688 C 16.941406 17.429688 17.101562 18.007812 17.417969 18.546875 C 17.730469 19.082031 18.164062 19.503906 18.707031 19.808594 C 19.25 20.113281 19.835938 20.261719 20.460938 20.25 C 21.085938 20.238281 21.664062 20.070312 22.195312 19.746094 Z M 22.195312 19.746094 " fill-opacity="1" fill-rule="nonzero"/><path fill="#e89e00" d="M 53.820312 59.324219 C 53.273438 60.046875 52.597656 60.613281 51.785156 61.015625 C 50.976562 61.421875 50.117188 61.625 49.210938 61.625 L 48.058594 61.625 L 48.058594 59.324219 L 49.210938 59.324219 L 49.210938 60.476562 L 50.363281 60.476562 C 51.644531 60.480469 52.796875 60.097656 53.820312 59.324219 Z M 53.820312 59.324219 " fill-opacity="1" fill-rule="nonzero"/><path fill="#e89e00" d="M 54.0625 50.179688 C 53.890625 50.527344 53.8125 50.894531 53.820312 51.28125 L 53.820312 54.730469 C 53.816406 55.328125 53.667969 55.890625 53.375 56.414062 C 53.078125 56.9375 52.671875 57.359375 52.160156 57.671875 C 52.5 57.121094 52.667969 56.523438 52.667969 55.878906 L 52.667969 52.429688 C 52.664062 51.953125 52.785156 51.511719 53.039062 51.105469 C 53.289062 50.695312 53.628906 50.386719 54.0625 50.179688 Z M 54.0625 50.179688 " fill-opacity="1" fill-rule="nonzero"/><path fill="#e89e00" d="M 57.207031 50.511719 C 57.15625 50.679688 57.070312 50.824219 56.941406 50.949219 C 56.691406 51.199219 56.417969 51.425781 56.125 51.625 L 56.125 51.199219 C 56.269531 51.078125 56.425781 50.976562 56.597656 50.890625 C 56.808594 50.777344 57.011719 50.652344 57.207031 50.511719 Z M 57.207031 50.511719 " fill-opacity="1" fill-rule="nonzero"/><path fill="#e89e00" d="M 55.292969 48.984375 C 54.789062 49.246094 54.386719 49.621094 54.097656 50.109375 C 53.65625 49.898438 53.308594 49.589844 53.050781 49.175781 C 52.792969 48.765625 52.664062 48.320312 52.667969 47.832031 L 52.667969 44.386719 C 52.664062 43.929688 52.578125 43.492188 52.402344 43.070312 C 52.226562 42.648438 51.976562 42.273438 51.652344 41.953125 C 51.328125 41.628906 50.953125 41.378906 50.53125 41.203125 C 50.109375 41.027344 49.667969 40.941406 49.210938 40.9375 L 48.058594 40.9375 L 48.058594 38.640625 L 49.210938 38.640625 L 49.210938 39.789062 L 50.363281 39.789062 C 50.820312 39.789062 51.261719 39.878906 51.683594 40.054688 C 52.105469 40.230469 52.480469 40.480469 52.804688 40.800781 C 53.128906 41.125 53.378906 41.496094 53.554688 41.917969 C 53.730469 42.339844 53.816406 42.78125 53.820312 43.238281 L 53.820312 46.683594 C 53.816406 47.179688 53.949219 47.632812 54.21875 48.050781 C 54.484375 48.464844 54.84375 48.777344 55.292969 48.984375 Z M 55.292969 48.984375 " fill-opacity="1" fill-rule="nonzero"/><path fill="#e89e00" d="M 31.921875 60.476562 L 31.921875 61.625 L 30.769531 61.625 C 30.394531 61.625 30.019531 61.585938 29.648438 61.515625 C 29.277344 61.441406 28.914062 61.332031 28.566406 61.1875 C 28.214844 61.042969 27.882812 60.867188 27.570312 60.65625 C 27.253906 60.445312 26.964844 60.207031 26.695312 59.941406 C 26.429688 59.675781 26.191406 59.382812 25.980469 59.070312 C 25.769531 58.757812 25.59375 58.425781 25.449219 58.078125 C 25.300781 57.730469 25.195312 57.371094 25.121094 57 C 25.046875 56.628906 25.007812 56.253906 25.007812 55.878906 L 25.007812 52.429688 C 24.960938 52.28125 24.710938 52.144531 24.535156 52.039062 C 23.988281 51.742188 23.488281 51.378906 23.039062 50.949219 C 22.929688 50.839844 22.847656 50.714844 22.789062 50.574219 C 22.730469 50.433594 22.699219 50.285156 22.699219 50.132812 C 22.699219 49.980469 22.730469 49.832031 22.789062 49.691406 C 22.847656 49.550781 22.929688 49.425781 23.039062 49.316406 C 23.3125 49.050781 23.609375 48.816406 23.925781 48.605469 C 23.847656 48.8125 23.835938 49.023438 23.882812 49.238281 C 23.929688 49.457031 24.035156 49.644531 24.191406 49.800781 C 24.640625 50.230469 25.140625 50.59375 25.6875 50.890625 C 25.863281 50.996094 26.113281 51.132812 26.160156 51.28125 L 26.160156 54.730469 C 26.160156 55.105469 26.199219 55.480469 26.273438 55.851562 C 26.347656 56.21875 26.457031 56.578125 26.601562 56.929688 C 26.746094 57.277344 26.921875 57.609375 27.132812 57.921875 C 27.34375 58.234375 27.582031 58.523438 27.847656 58.792969 C 28.117188 59.058594 28.40625 59.296875 28.722656 59.507812 C 29.035156 59.714844 29.367188 59.894531 29.71875 60.039062 C 30.066406 60.183594 30.429688 60.289062 30.800781 60.363281 C 31.171875 60.4375 31.546875 60.476562 31.921875 60.476562 Z M 31.921875 60.476562 " fill-opacity="1" fill-rule="nonzero"/><path fill="#e89e00" d="M 27.3125 39.789062 C 26.539062 40.808594 26.15625 41.957031 26.160156 43.238281 L 26.160156 46.765625 C 26.015625 46.886719 25.859375 46.988281 25.6875 47.074219 C 25.492188 47.191406 25.261719 47.328125 25.007812 47.488281 L 25.007812 44.386719 C 25.007812 43.480469 25.214844 42.625 25.617188 41.816406 C 26.023438 41.007812 26.589844 40.332031 27.3125 39.789062 Z M 27.3125 39.789062 " fill-opacity="1" fill-rule="nonzero"/><path fill="#e89e00" d="M 31.921875 39.789062 L 31.921875 40.9375 L 30.769531 40.9375 C 30.125 40.9375 29.523438 41.105469 28.972656 41.445312 C 29.289062 40.933594 29.707031 40.527344 30.230469 40.234375 C 30.757812 39.941406 31.320312 39.792969 31.921875 39.789062 Z M 31.921875 39.789062 " fill-opacity="1" fill-rule="nonzero"/><path fill="#e89e00" d="M 42.085938 45.328125 C 42.011719 45.5 41.917969 45.65625 41.800781 45.804688 C 41.6875 45.953125 41.554688 46.082031 41.410156 46.199219 C 41.261719 46.316406 41.105469 46.410156 40.933594 46.488281 C 40.761719 46.566406 40.585938 46.621094 40.402344 46.65625 C 40.21875 46.6875 40.03125 46.699219 39.847656 46.6875 C 39.660156 46.679688 39.476562 46.644531 39.296875 46.589844 C 39.121094 46.535156 38.949219 46.460938 38.789062 46.363281 C 38.628906 46.265625 38.484375 46.152344 38.351562 46.019531 C 38.21875 45.886719 38.105469 45.742188 38.007812 45.582031 C 37.910156 45.421875 37.835938 45.253906 37.78125 45.078125 C 37.726562 44.898438 37.691406 44.714844 37.679688 44.53125 C 37.667969 44.34375 37.679688 44.160156 37.714844 43.976562 C 37.75 43.792969 37.804688 43.617188 37.882812 43.445312 C 37.960938 43.277344 38.054688 43.117188 38.171875 42.972656 C 38.289062 42.824219 38.417969 42.695312 38.566406 42.578125 C 38.714844 42.464844 38.875 42.371094 39.046875 42.292969 C 38.90625 42.59375 38.835938 42.90625 38.835938 43.238281 C 38.839844 43.542969 38.898438 43.835938 39.015625 44.117188 C 39.132812 44.398438 39.300781 44.644531 39.515625 44.859375 C 39.730469 45.074219 39.980469 45.242188 40.261719 45.359375 C 40.542969 45.476562 40.835938 45.535156 41.144531 45.535156 C 41.472656 45.539062 41.789062 45.46875 42.085938 45.328125 Z M 42.085938 45.328125 " fill-opacity="1" fill-rule="nonzero"/><path fill="#e89e00" d="M 36.53125 55.878906 L 38.179688 55.878906 L 37.683594 57.027344 L 35.378906 57.027344 L 37.683594 48.984375 L 38.503906 48.984375 Z M 36.53125 55.878906 " fill-opacity="1" fill-rule="nonzero"/></svg>