<svg xmlns="http://www.w3.org/2000/svg" xmlns:xlink="http://www.w3.org/1999/xlink" width="1920" zoomAndPan="magnify" viewBox="0 0 1440 525.000007" height="700" preserveAspectRatio="xMidYMid meet" version="1.0"><defs><clipPath id="bc9c898714"><path d="M 1.367188 0 L 1438.628906 0 L 1438.628906 524 L 1.367188 524 Z M 1.367188 0 " clip-rule="nonzero"/></clipPath><clipPath id="924e17105c"><path d="M 1.367188 145.789062 L 1438.628906 145.789062 L 1438.628906 524 L 1.367188 524 Z M 1.367188 145.789062 " clip-rule="nonzero"/></clipPath><clipPath id="073f7cb964"><path d="M 3 0 L 1438.628906 0 L 1438.628906 524 L 3 524 Z M 3 0 " clip-rule="nonzero"/></clipPath><clipPath id="bc80b50036"><path d="M 3 0 L 1438.628906 0 L 1438.628906 512 L 3 512 Z M 3 0 " clip-rule="nonzero"/></clipPath><clipPath id="464205ec0a"><path d="M 3 0 L 1438.628906 0 L 1438.628906 453 L 3 453 Z M 3 0 " clip-rule="nonzero"/></clipPath><clipPath id="574d9874bf"><path d="M 3 0 L 1438.628906 0 L 1438.628906 407 L 3 407 Z M 3 0 " clip-rule="nonzero"/></clipPath></defs><g clip-path="url(#bc9c898714)"><path fill="#ffffff" d="M 1.367188 0 L 1438.632812 0 L 1438.632812 531.488281 L 1.367188 531.488281 Z M 1.367188 0 " fill-opacity="1" fill-rule="nonzero"/><path fill="#ffffff" d="M 1.367188 0 L 1438.632812 0 L 1438.632812 524 L 1.367188 524 Z M 1.367188 0 " fill-opacity="1" fill-rule="nonzero"/><path fill="#ffffff" d="M 1.367188 0 L 1438.632812 0 L 1438.632812 524 L 1.367188 524 Z M 1.367188 0 " fill-opacity="1" fill-rule="nonzero"/></g><g clip-path="url(#924e17105c)"><path fill="#0d6973" d="M -81.859375 145.789062 L 1474.457031 145.789062 L 1474.457031 673.535156 L -81.859375 673.535156 Z M -81.859375 145.789062 " fill-opacity="1" fill-rule="nonzero"/></g><g clip-path="url(#073f7cb964)"><path fill="#04adbf" d="M 1935.921875 578.648438 C 1806.796875 485.183594 1624.542969 374.351562 1410.023438 335.308594 C 881.007812 239.019531 522.933594 561.257812 3.378906 528.707031 L 3.378906 0 L 1935.921875 0 Z M 1935.921875 578.648438 " fill-opacity="0.3412" fill-rule="evenodd"/></g><g clip-path="url(#bc80b50036)"><path fill="#ffffff" d="M 1935.921875 511.183594 C 1781.050781 399.082031 1616.632812 274.054688 1397.890625 250.597656 C 855.539062 192.433594 515.773438 488.535156 3.378906 472.882812 L 3.378906 0 L 1935.921875 0 Z M 1935.921875 511.183594 " fill-opacity="0.3412" fill-rule="evenodd"/></g><g clip-path="url(#464205ec0a)"><path fill="#04adbf" d="M 1935.921875 395.929688 C 1781.050781 283.828125 1622.839844 234.816406 1404.105469 211.359375 C 861.753906 153.207031 515.773438 467.476562 3.378906 451.824219 L 3.378906 0 L 1935.921875 0 Z M 1935.921875 395.929688 " fill-opacity="0.3412" fill-rule="evenodd"/></g><g clip-path="url(#574d9874bf)"><path fill="#0d6973" d="M 1935.921875 363.054688 C 1781.050781 250.957031 1622.234375 206.945312 1403.496094 183.488281 C 861.144531 125.328125 515.773438 421.425781 3.378906 405.773438 L 3.378906 0 L 1935.921875 0 Z M 1935.921875 363.054688 " fill-opacity="1" fill-rule="evenodd"/></g></svg>