<svg xmlns="http://www.w3.org/2000/svg" xmlns:xlink="http://www.w3.org/1999/xlink" width="200" zoomAndPan="magnify" viewBox="0 0 150 74.999997" height="100" preserveAspectRatio="xMidYMid meet" version="1.0"><defs><g/></defs><g fill="#ffffff" fill-opacity="1"><g transform="translate(45.887923, 49.428604)"><g><path d="M 1.136719 -6.625 C 1.136719 -2.6875 3.632812 0.757812 8.027344 0.757812 C 15.5625 0.757812 19.992188 -5.90625 19.992188 -15.105469 C 19.992188 -16.925781 19.914062 -18.4375 19.765625 -19.648438 L 24.457031 -7.269531 C 25.898438 -3.445312 26.085938 -0.378906 20.75 -0.378906 L 20.75 0 L 33.167969 0 L 33.167969 -0.378906 C 30.859375 -0.378906 29.644531 -2.460938 27.980469 -6.625 L 15.863281 -38.621094 L 15.484375 -38.621094 C 13.101562 -32.335938 11.699219 -28.585938 9.390625 -22.488281 C 9.011719 -21.503906 9.199219 -20.484375 10.261719 -20.484375 C 12.417969 -20.484375 13.554688 -24.457031 15.371094 -24.457031 C 15.863281 -24.457031 16.28125 -24.15625 16.28125 -23.4375 C 16.28125 -19.5 1.136719 -15.941406 1.136719 -6.625 Z M 4.355469 -7.34375 C 4.355469 -16.695312 16.695312 -18.289062 16.695312 -23.359375 C 16.695312 -24.34375 16.167969 -24.835938 15.449219 -24.835938 C 13.441406 -24.835938 12.039062 -20.863281 10.296875 -20.863281 C 9.691406 -20.863281 9.390625 -21.316406 9.882812 -22.640625 L 14.234375 -34.226562 L 18.816406 -22.148438 C 19.5 -19.914062 19.613281 -17.832031 19.613281 -15.03125 C 19.613281 -8.820312 16.621094 -1.058594 10.296875 -1.058594 C 6.589844 -1.058594 4.355469 -3.785156 4.355469 -7.34375 Z M 4.355469 -7.34375 "/></g></g></g><g fill="#ffffff" fill-opacity="1"><g transform="translate(72.348711, 49.428604)"><g><path d="M 1.136719 -37.863281 L 1.136719 -37.484375 C 4.390625 -37.484375 4.621094 -34.796875 4.621094 -27.335938 L 4.621094 -10.527344 C 4.621094 -3.066406 4.390625 -0.378906 1.136719 -0.378906 L 1.136719 0 L 5.679688 0 C 9.84375 0 12.53125 0.757812 16.925781 0.757812 C 24.988281 0.757812 29.496094 -3.632812 29.496094 -10.183594 C 29.496094 -15.941406 24.761719 -19.648438 18.96875 -19.648438 C 15.335938 -19.648438 12.683594 -17.339844 11.09375 -17.339844 C 10.640625 -17.339844 9.996094 -17.453125 9.996094 -18.324219 C 9.996094 -22.527344 27.109375 -21.769531 27.109375 -31.652344 C 27.109375 -36.953125 22.226562 -38.621094 16.886719 -38.621094 C 13.554688 -38.621094 8.859375 -37.863281 5.527344 -37.863281 Z M 7.835938 -37.027344 C 10.035156 -37.710938 12.230469 -38.089844 14.691406 -38.089844 C 19.308594 -38.089844 23.851562 -36.273438 23.851562 -31.578125 C 23.851562 -23.929688 9.617188 -23.210938 9.617188 -18.25 C 9.617188 -17.339844 10.261719 -16.960938 10.941406 -16.960938 C 13.175781 -16.960938 15.75 -19.234375 18.929688 -19.234375 C 23.664062 -19.234375 26.238281 -14.464844 26.238281 -9.917969 C 26.238281 -3.632812 21.808594 0.226562 14.765625 0.226562 C 11.964844 0.226562 10.148438 -0.152344 7.835938 -0.984375 Z M 7.835938 -37.027344 "/></g></g></g><g fill="#ffffff" fill-opacity="1"><g transform="translate(24.938189, 61.369098)"><g><path d="M 3.328125 -1.171875 L 0.890625 -1.171875 L 0.359375 0 L 0.03125 0 L 1.953125 -4.1875 L 2.265625 -4.1875 L 4.1875 0 L 3.859375 0 Z M 3.203125 -1.4375 L 2.109375 -3.859375 L 1.015625 -1.4375 Z M 3.203125 -1.4375 "/></g></g></g><g fill="#ffffff" fill-opacity="1"><g transform="translate(31.154131, 61.369098)"><g><path d="M 0.734375 -4.1875 L 1.03125 -4.1875 L 1.03125 -0.28125 L 3.453125 -0.28125 L 3.453125 0 L 0.734375 0 Z M 0.734375 -4.1875 "/></g></g></g><g fill="#ffffff" fill-opacity="1"><g transform="translate(36.652919, 61.369098)"><g><path d="M 3.625 -0.28125 L 3.625 0 L 0.734375 0 L 0.734375 -4.1875 L 3.53125 -4.1875 L 3.53125 -3.90625 L 1.03125 -3.90625 L 1.03125 -2.265625 L 3.265625 -2.265625 L 3.265625 -2 L 1.03125 -2 L 1.03125 -0.28125 Z M 3.625 -0.28125 "/></g></g></g><g fill="#ffffff" fill-opacity="1"><g transform="translate(42.653716, 61.369098)"><g><path d="M 1.828125 0.03125 C 1.523438 0.03125 1.234375 -0.0195312 0.953125 -0.125 C 0.671875 -0.226562 0.457031 -0.363281 0.3125 -0.53125 L 0.4375 -0.765625 C 0.59375 -0.609375 0.789062 -0.476562 1.03125 -0.375 C 1.28125 -0.28125 1.546875 -0.234375 1.828125 -0.234375 C 2.222656 -0.234375 2.519531 -0.304688 2.71875 -0.453125 C 2.925781 -0.609375 3.03125 -0.8125 3.03125 -1.0625 C 3.03125 -1.25 2.972656 -1.394531 2.859375 -1.5 C 2.753906 -1.613281 2.625 -1.703125 2.46875 -1.765625 C 2.3125 -1.828125 2.097656 -1.890625 1.828125 -1.953125 C 1.515625 -2.023438 1.265625 -2.097656 1.078125 -2.171875 C 0.898438 -2.242188 0.742188 -2.351562 0.609375 -2.5 C 0.484375 -2.65625 0.421875 -2.859375 0.421875 -3.109375 C 0.421875 -3.304688 0.472656 -3.488281 0.578125 -3.65625 C 0.679688 -3.832031 0.84375 -3.96875 1.0625 -4.0625 C 1.289062 -4.164062 1.570312 -4.21875 1.90625 -4.21875 C 2.132812 -4.21875 2.359375 -4.179688 2.578125 -4.109375 C 2.804688 -4.046875 3.003906 -3.957031 3.171875 -3.84375 L 3.046875 -3.59375 C 2.878906 -3.707031 2.695312 -3.796875 2.5 -3.859375 C 2.300781 -3.921875 2.101562 -3.953125 1.90625 -3.953125 C 1.519531 -3.953125 1.222656 -3.875 1.015625 -3.71875 C 0.816406 -3.5625 0.71875 -3.359375 0.71875 -3.109375 C 0.71875 -2.921875 0.769531 -2.769531 0.875 -2.65625 C 0.988281 -2.550781 1.125 -2.46875 1.28125 -2.40625 C 1.445312 -2.34375 1.664062 -2.28125 1.9375 -2.21875 C 2.25 -2.132812 2.492188 -2.054688 2.671875 -1.984375 C 2.859375 -1.921875 3.015625 -1.816406 3.140625 -1.671875 C 3.273438 -1.523438 3.34375 -1.328125 3.34375 -1.078125 C 3.34375 -0.867188 3.285156 -0.679688 3.171875 -0.515625 C 3.066406 -0.347656 2.898438 -0.210938 2.671875 -0.109375 C 2.441406 -0.015625 2.160156 0.03125 1.828125 0.03125 Z M 1.828125 0.03125 "/></g></g></g><g fill="#ffffff" fill-opacity="1"><g transform="translate(48.295936, 61.369098)"><g><path d="M 1.828125 0.03125 C 1.523438 0.03125 1.234375 -0.0195312 0.953125 -0.125 C 0.671875 -0.226562 0.457031 -0.363281 0.3125 -0.53125 L 0.4375 -0.765625 C 0.59375 -0.609375 0.789062 -0.476562 1.03125 -0.375 C 1.28125 -0.28125 1.546875 -0.234375 1.828125 -0.234375 C 2.222656 -0.234375 2.519531 -0.304688 2.71875 -0.453125 C 2.925781 -0.609375 3.03125 -0.8125 3.03125 -1.0625 C 3.03125 -1.25 2.972656 -1.394531 2.859375 -1.5 C 2.753906 -1.613281 2.625 -1.703125 2.46875 -1.765625 C 2.3125 -1.828125 2.097656 -1.890625 1.828125 -1.953125 C 1.515625 -2.023438 1.265625 -2.097656 1.078125 -2.171875 C 0.898438 -2.242188 0.742188 -2.351562 0.609375 -2.5 C 0.484375 -2.65625 0.421875 -2.859375 0.421875 -3.109375 C 0.421875 -3.304688 0.472656 -3.488281 0.578125 -3.65625 C 0.679688 -3.832031 0.84375 -3.96875 1.0625 -4.0625 C 1.289062 -4.164062 1.570312 -4.21875 1.90625 -4.21875 C 2.132812 -4.21875 2.359375 -4.179688 2.578125 -4.109375 C 2.804688 -4.046875 3.003906 -3.957031 3.171875 -3.84375 L 3.046875 -3.59375 C 2.878906 -3.707031 2.695312 -3.796875 2.5 -3.859375 C 2.300781 -3.921875 2.101562 -3.953125 1.90625 -3.953125 C 1.519531 -3.953125 1.222656 -3.875 1.015625 -3.71875 C 0.816406 -3.5625 0.71875 -3.359375 0.71875 -3.109375 C 0.71875 -2.921875 0.769531 -2.769531 0.875 -2.65625 C 0.988281 -2.550781 1.125 -2.46875 1.28125 -2.40625 C 1.445312 -2.34375 1.664062 -2.28125 1.9375 -2.21875 C 2.25 -2.132812 2.492188 -2.054688 2.671875 -1.984375 C 2.859375 -1.921875 3.015625 -1.816406 3.140625 -1.671875 C 3.273438 -1.523438 3.34375 -1.328125 3.34375 -1.078125 C 3.34375 -0.867188 3.285156 -0.679688 3.171875 -0.515625 C 3.066406 -0.347656 2.898438 -0.210938 2.671875 -0.109375 C 2.441406 -0.015625 2.160156 0.03125 1.828125 0.03125 Z M 1.828125 0.03125 "/></g></g></g><g fill="#ffffff" fill-opacity="1"><g transform="translate(53.938156, 61.369098)"><g><path d="M 3.328125 -1.171875 L 0.890625 -1.171875 L 0.359375 0 L 0.03125 0 L 1.953125 -4.1875 L 2.265625 -4.1875 L 4.1875 0 L 3.859375 0 Z M 3.203125 -1.4375 L 2.109375 -3.859375 L 1.015625 -1.4375 Z M 3.203125 -1.4375 "/></g></g></g><g fill="#ffffff" fill-opacity="1"><g transform="translate(60.154098, 61.369098)"><g><path d="M 4.140625 -4.1875 L 4.140625 0 L 3.890625 0 L 1.03125 -3.640625 L 1.03125 0 L 0.734375 0 L 0.734375 -4.1875 L 0.984375 -4.1875 L 3.84375 -0.546875 L 3.84375 -4.1875 Z M 4.140625 -4.1875 "/></g></g></g><g fill="#ffffff" fill-opacity="1"><g transform="translate(67.021448, 61.369098)"><g><path d="M 0.734375 -4.1875 L 2.390625 -4.1875 C 2.828125 -4.1875 3.210938 -4.097656 3.546875 -3.921875 C 3.878906 -3.742188 4.140625 -3.492188 4.328125 -3.171875 C 4.515625 -2.859375 4.609375 -2.5 4.609375 -2.09375 C 4.609375 -1.6875 4.515625 -1.320312 4.328125 -1 C 4.140625 -0.6875 3.878906 -0.441406 3.546875 -0.265625 C 3.210938 -0.0859375 2.828125 0 2.390625 0 L 0.734375 0 Z M 2.359375 -0.28125 C 2.742188 -0.28125 3.082031 -0.351562 3.375 -0.5 C 3.675781 -0.65625 3.90625 -0.867188 4.0625 -1.140625 C 4.226562 -1.421875 4.3125 -1.738281 4.3125 -2.09375 C 4.3125 -2.445312 4.226562 -2.757812 4.0625 -3.03125 C 3.90625 -3.3125 3.675781 -3.523438 3.375 -3.671875 C 3.082031 -3.828125 2.742188 -3.90625 2.359375 -3.90625 L 1.03125 -3.90625 L 1.03125 -0.28125 Z M 2.359375 -0.28125 "/></g></g></g><g fill="#ffffff" fill-opacity="1"><g transform="translate(73.960512, 61.369098)"><g><path d="M 3.640625 0 L 2.640625 -1.40625 C 2.492188 -1.382812 2.359375 -1.375 2.234375 -1.375 L 1.03125 -1.375 L 1.03125 0 L 0.734375 0 L 0.734375 -4.1875 L 2.234375 -4.1875 C 2.753906 -4.1875 3.164062 -4.0625 3.46875 -3.8125 C 3.769531 -3.5625 3.921875 -3.21875 3.921875 -2.78125 C 3.921875 -2.445312 3.832031 -2.164062 3.65625 -1.9375 C 3.488281 -1.71875 3.25 -1.5625 2.9375 -1.46875 L 3.984375 0 Z M 2.234375 -1.640625 C 2.679688 -1.640625 3.019531 -1.738281 3.25 -1.9375 C 3.488281 -2.132812 3.609375 -2.414062 3.609375 -2.78125 C 3.609375 -3.144531 3.488281 -3.421875 3.25 -3.609375 C 3.019531 -3.804688 2.679688 -3.90625 2.234375 -3.90625 L 1.03125 -3.90625 L 1.03125 -1.640625 Z M 2.234375 -1.640625 "/></g></g></g><g fill="#ffffff" fill-opacity="1"><g transform="translate(80.2661, 61.369098)"><g><path d="M 2.5 0.03125 C 2.09375 0.03125 1.722656 -0.0625 1.390625 -0.25 C 1.054688 -0.4375 0.796875 -0.691406 0.609375 -1.015625 C 0.421875 -1.335938 0.328125 -1.695312 0.328125 -2.09375 C 0.328125 -2.488281 0.421875 -2.847656 0.609375 -3.171875 C 0.796875 -3.492188 1.054688 -3.75 1.390625 -3.9375 C 1.722656 -4.125 2.09375 -4.21875 2.5 -4.21875 C 2.914062 -4.21875 3.289062 -4.125 3.625 -3.9375 C 3.957031 -3.757812 4.21875 -3.507812 4.40625 -3.1875 C 4.59375 -2.863281 4.6875 -2.5 4.6875 -2.09375 C 4.6875 -1.6875 4.59375 -1.320312 4.40625 -1 C 4.21875 -0.675781 3.957031 -0.421875 3.625 -0.234375 C 3.289062 -0.0546875 2.914062 0.03125 2.5 0.03125 Z M 2.5 -0.25 C 2.851562 -0.25 3.171875 -0.328125 3.453125 -0.484375 C 3.742188 -0.648438 3.96875 -0.875 4.125 -1.15625 C 4.289062 -1.4375 4.375 -1.75 4.375 -2.09375 C 4.375 -2.4375 4.289062 -2.75 4.125 -3.03125 C 3.96875 -3.3125 3.742188 -3.53125 3.453125 -3.6875 C 3.171875 -3.851562 2.851562 -3.9375 2.5 -3.9375 C 2.15625 -3.9375 1.835938 -3.851562 1.546875 -3.6875 C 1.265625 -3.53125 1.039062 -3.3125 0.875 -3.03125 C 0.71875 -2.75 0.640625 -2.4375 0.640625 -2.09375 C 0.640625 -1.75 0.71875 -1.4375 0.875 -1.15625 C 1.039062 -0.875 1.265625 -0.648438 1.546875 -0.484375 C 1.835938 -0.328125 2.15625 -0.25 2.5 -0.25 Z M 2.5 -0.25 "/></g></g></g><g fill="#ffffff" fill-opacity="1"><g transform="translate(87.27688, 61.369098)"><g/></g></g><g fill="#ffffff" fill-opacity="1"><g transform="translate(90.815466, 61.369098)"><g><path d="M 3.21875 -2.15625 C 3.519531 -2.101562 3.75 -1.984375 3.90625 -1.796875 C 4.0625 -1.617188 4.140625 -1.390625 4.140625 -1.109375 C 4.140625 -0.753906 4.007812 -0.476562 3.75 -0.28125 C 3.488281 -0.09375 3.101562 0 2.59375 0 L 0.734375 0 L 0.734375 -4.1875 L 2.484375 -4.1875 C 2.929688 -4.1875 3.28125 -4.09375 3.53125 -3.90625 C 3.789062 -3.71875 3.921875 -3.457031 3.921875 -3.125 C 3.921875 -2.882812 3.859375 -2.679688 3.734375 -2.515625 C 3.609375 -2.347656 3.4375 -2.226562 3.21875 -2.15625 Z M 1.03125 -3.921875 L 1.03125 -2.25 L 2.46875 -2.25 C 2.832031 -2.25 3.113281 -2.320312 3.3125 -2.46875 C 3.507812 -2.613281 3.609375 -2.820312 3.609375 -3.09375 C 3.609375 -3.363281 3.507812 -3.566406 3.3125 -3.703125 C 3.113281 -3.847656 2.832031 -3.921875 2.46875 -3.921875 Z M 2.59375 -0.265625 C 3 -0.265625 3.304688 -0.332031 3.515625 -0.46875 C 3.734375 -0.613281 3.84375 -0.832031 3.84375 -1.125 C 3.84375 -1.425781 3.734375 -1.644531 3.515625 -1.78125 C 3.304688 -1.925781 3 -2 2.59375 -2 L 1.03125 -2 L 1.03125 -0.265625 Z M 2.59375 -0.265625 "/></g></g></g><g fill="#ffffff" fill-opacity="1"><g transform="translate(97.312291, 61.369098)"><g><path d="M 2.5 0.03125 C 2.09375 0.03125 1.722656 -0.0625 1.390625 -0.25 C 1.054688 -0.4375 0.796875 -0.691406 0.609375 -1.015625 C 0.421875 -1.335938 0.328125 -1.695312 0.328125 -2.09375 C 0.328125 -2.488281 0.421875 -2.847656 0.609375 -3.171875 C 0.796875 -3.492188 1.054688 -3.75 1.390625 -3.9375 C 1.722656 -4.125 2.09375 -4.21875 2.5 -4.21875 C 2.914062 -4.21875 3.289062 -4.125 3.625 -3.9375 C 3.957031 -3.757812 4.21875 -3.507812 4.40625 -3.1875 C 4.59375 -2.863281 4.6875 -2.5 4.6875 -2.09375 C 4.6875 -1.6875 4.59375 -1.320312 4.40625 -1 C 4.21875 -0.675781 3.957031 -0.421875 3.625 -0.234375 C 3.289062 -0.0546875 2.914062 0.03125 2.5 0.03125 Z M 2.5 -0.25 C 2.851562 -0.25 3.171875 -0.328125 3.453125 -0.484375 C 3.742188 -0.648438 3.96875 -0.875 4.125 -1.15625 C 4.289062 -1.4375 4.375 -1.75 4.375 -2.09375 C 4.375 -2.4375 4.289062 -2.75 4.125 -3.03125 C 3.96875 -3.3125 3.742188 -3.53125 3.453125 -3.6875 C 3.171875 -3.851562 2.851562 -3.9375 2.5 -3.9375 C 2.15625 -3.9375 1.835938 -3.851562 1.546875 -3.6875 C 1.265625 -3.53125 1.039062 -3.3125 0.875 -3.03125 C 0.71875 -2.75 0.640625 -2.4375 0.640625 -2.09375 C 0.640625 -1.75 0.71875 -1.4375 0.875 -1.15625 C 1.039062 -0.875 1.265625 -0.648438 1.546875 -0.484375 C 1.835938 -0.328125 2.15625 -0.25 2.5 -0.25 Z M 2.5 -0.25 "/></g></g></g><g fill="#ffffff" fill-opacity="1"><g transform="translate(104.323071, 61.369098)"><g><path d="M 4.140625 -4.1875 L 4.140625 0 L 3.890625 0 L 1.03125 -3.640625 L 1.03125 0 L 0.734375 0 L 0.734375 -4.1875 L 0.984375 -4.1875 L 3.84375 -0.546875 L 3.84375 -4.1875 Z M 4.140625 -4.1875 "/></g></g></g><g fill="#ffffff" fill-opacity="1"><g transform="translate(111.190425, 61.369098)"><g><path d="M 0.734375 -4.1875 L 1.03125 -4.1875 L 1.03125 0 L 0.734375 0 Z M 0.734375 -4.1875 "/></g></g></g><g fill="#ffffff" fill-opacity="1"><g transform="translate(114.956102, 61.369098)"><g><path d="M 4.078125 -4.1875 L 2.203125 0 L 1.90625 0 L 0.03125 -4.1875 L 0.375 -4.1875 L 2.0625 -0.390625 L 3.765625 -4.1875 Z M 4.078125 -4.1875 "/></g></g></g><g fill="#ffffff" fill-opacity="1"><g transform="translate(121.064474, 61.369098)"><g><path d="M 3.625 -0.28125 L 3.625 0 L 0.734375 0 L 0.734375 -4.1875 L 3.53125 -4.1875 L 3.53125 -3.90625 L 1.03125 -3.90625 L 1.03125 -2.265625 L 3.265625 -2.265625 L 3.265625 -2 L 1.03125 -2 L 1.03125 -0.28125 Z M 3.625 -0.28125 "/></g></g></g><path stroke-linecap="butt" transform="matrix(2.218798, 0.000000000000000953, -0.000000000000000966, 2.25, -0.894943, 59.502321)" fill="none" stroke-linejoin="miter" d="M 0.000185641 0.00070476 L 10.146093 0.00070476 " stroke="#ffffff" stroke-width="1" stroke-opacity="1" stroke-miterlimit="4"/><path stroke-linecap="butt" transform="matrix(2.218798, 0.000000000000000953, -0.000000000000000966, 2.25, 128.067811, 59.329871)" fill="none" stroke-linejoin="miter" d="M -0.000633087 -0.00077598 L 10.145274 -0.00077598 " stroke="#ffffff" stroke-width="1" stroke-opacity="1" stroke-miterlimit="4"/></svg>