<svg xmlns="http://www.w3.org/2000/svg" xmlns:xlink="http://www.w3.org/1999/xlink" width="100" zoomAndPan="magnify" viewBox="0 0 75 74.999997" height="100" preserveAspectRatio="xMidYMid meet" version="1.0"><defs><clipPath id="d79943993f"><path d="M 53 1.808594 L 67.558594 1.808594 L 67.558594 16 L 53 16 Z M 53 1.808594 " clip-rule="nonzero"/></clipPath><clipPath id="fad0db7725"><path d="M 14 1.808594 L 67.558594 1.808594 L 67.558594 73.058594 L 14 73.058594 Z M 14 1.808594 " clip-rule="nonzero"/></clipPath><clipPath id="5670aac95b"><path d="M 54 15 L 67.558594 15 L 67.558594 18 L 54 18 Z M 54 15 " clip-rule="nonzero"/></clipPath><clipPath id="021418b935"><path d="M 5.308594 5 L 47 5 L 47 24 L 5.308594 24 Z M 5.308594 5 " clip-rule="nonzero"/></clipPath></defs><g clip-path="url(#d79943993f)"><path fill="#ffaf36" d="M 53.71875 1.808594 L 67.546875 15.597656 L 53.71875 15.597656 Z M 53.71875 1.808594 " fill-opacity="1" fill-rule="nonzero"/></g><g clip-path="url(#fad0db7725)"><path fill="#ff6d00" d="M 67.546875 15.597656 L 67.546875 73.058594 L 14.539062 73.058594 L 14.539062 1.808594 L 53.71875 1.808594 L 53.71875 15.597656 Z M 67.546875 15.597656 " fill-opacity="1" fill-rule="nonzero"/></g><path fill="#f54e00" d="M 16.84375 11.003906 L 16.84375 66.164062 C 16.84375 66.464844 16.871094 66.765625 16.929688 67.058594 C 16.992188 67.355469 17.078125 67.644531 17.195312 67.921875 C 17.308594 68.203125 17.453125 68.464844 17.621094 68.71875 C 17.789062 68.96875 17.980469 69.199219 18.191406 69.414062 C 18.40625 69.628906 18.640625 69.816406 18.890625 69.984375 C 19.144531 70.152344 19.410156 70.296875 19.6875 70.410156 C 19.96875 70.527344 20.257812 70.613281 20.554688 70.671875 C 20.851562 70.730469 21.148438 70.761719 21.453125 70.761719 L 60.632812 70.761719 C 60.933594 70.761719 61.234375 70.730469 61.53125 70.671875 C 61.828125 70.613281 62.117188 70.527344 62.398438 70.410156 C 62.675781 70.296875 62.941406 70.152344 63.195312 69.984375 C 63.445312 69.816406 63.679688 69.628906 63.890625 69.414062 C 64.105469 69.199219 64.296875 68.96875 64.464844 68.71875 C 64.632812 68.464844 64.773438 68.203125 64.890625 67.921875 C 65.007812 67.644531 65.09375 67.355469 65.152344 67.058594 C 65.210938 66.765625 65.242188 66.464844 65.242188 66.164062 L 65.242188 63.722656 C 16.84375 60.75 16.84375 11.003906 16.84375 11.003906 Z M 16.84375 11.003906 " fill-opacity="1" fill-rule="nonzero"/><g clip-path="url(#5670aac95b)"><path fill="#f54e00" d="M 54.871094 15.597656 L 67.546875 15.597656 L 67.546875 17.898438 L 54.871094 17.898438 Z M 54.871094 15.597656 " fill-opacity="1" fill-rule="nonzero"/></g><g clip-path="url(#021418b935)"><path fill="#f54100" d="M 5.320312 5.257812 L 46.804688 5.257812 L 46.804688 23.644531 L 5.320312 23.644531 Z M 5.320312 5.257812 " fill-opacity="1" fill-rule="nonzero"/></g><path fill="#d63900" d="M 14.539062 23.644531 L 44.5 23.644531 L 44.5 27.089844 L 14.539062 27.089844 Z M 14.539062 23.644531 " fill-opacity="1" fill-rule="nonzero"/><path fill="#ffffff" d="M 39.890625 17.898438 L 39.890625 8.703125 L 37.585938 8.703125 L 37.585938 19.046875 C 37.585938 19.199219 37.613281 19.34375 37.671875 19.488281 C 37.730469 19.628906 37.816406 19.75 37.921875 19.859375 C 38.03125 19.96875 38.15625 20.050781 38.296875 20.109375 C 38.4375 20.167969 38.585938 20.195312 38.738281 20.195312 L 43.347656 20.195312 L 43.347656 17.898438 Z M 39.890625 17.898438 " fill-opacity="1" fill-rule="nonzero"/><path fill="#ffffff" d="M 14.539062 13.300781 L 11.082031 13.300781 L 11.082031 8.703125 L 8.777344 8.703125 L 8.777344 20.195312 L 11.082031 20.195312 L 11.082031 15.597656 L 14.539062 15.597656 L 14.539062 20.195312 L 16.84375 20.195312 L 16.84375 8.703125 L 14.539062 8.703125 Z M 14.539062 13.300781 " fill-opacity="1" fill-rule="nonzero"/><path fill="#ffffff" d="M 17.996094 11.003906 L 20.300781 11.003906 L 20.300781 20.195312 L 22.605469 20.195312 L 22.605469 11.003906 L 24.910156 11.003906 L 24.910156 8.703125 L 17.996094 8.703125 Z M 17.996094 11.003906 " fill-opacity="1" fill-rule="nonzero"/><path fill="#ffffff" d="M 34.359375 8.726562 C 34.089844 8.671875 33.835938 8.707031 33.59375 8.832031 C 33.351562 8.960938 33.175781 9.148438 33.066406 9.398438 L 30.671875 14.980469 L 28.273438 9.398438 C 28.164062 9.148438 27.992188 8.960938 27.746094 8.835938 C 27.503906 8.707031 27.25 8.671875 26.984375 8.726562 C 26.714844 8.78125 26.496094 8.914062 26.320312 9.128906 C 26.148438 9.339844 26.0625 9.582031 26.0625 9.851562 L 26.0625 20.195312 L 28.367188 20.195312 L 28.367188 15.453125 L 29.613281 18.351562 C 29.703125 18.5625 29.84375 18.730469 30.039062 18.855469 C 30.230469 18.984375 30.441406 19.046875 30.671875 19.046875 C 30.902344 19.046875 31.113281 18.984375 31.304688 18.855469 C 31.496094 18.730469 31.640625 18.5625 31.730469 18.351562 L 32.976562 15.453125 L 32.976562 20.195312 L 35.28125 20.195312 L 35.28125 9.851562 C 35.28125 9.582031 35.195312 9.339844 35.019531 9.125 C 34.847656 8.914062 34.628906 8.78125 34.359375 8.726562 Z M 34.359375 8.726562 " fill-opacity="1" fill-rule="nonzero"/><path fill="#ffffff" d="M 28.367188 58.121094 L 19.148438 47.777344 L 28.367188 37.433594 L 32.976562 37.433594 L 23.757812 47.777344 L 32.976562 58.121094 Z M 28.367188 58.121094 " fill-opacity="1" fill-rule="nonzero"/><path fill="#ffffff" d="M 53.71875 58.121094 L 62.9375 47.777344 L 53.71875 37.433594 L 49.109375 37.433594 L 58.328125 47.777344 L 49.109375 58.121094 Z M 53.71875 58.121094 " fill-opacity="1" fill-rule="nonzero"/><path fill="#ffffff" d="M 36.433594 58.121094 L 42.195312 37.433594 L 45.652344 37.433594 L 39.890625 58.121094 Z M 36.433594 58.121094 " fill-opacity="1" fill-rule="nonzero"/><path fill="#d63900" d="M 19.148438 47.777344 L 26.316406 39.730469 L 26.0625 39.730469 L 16.84375 50.074219 L 26.0625 60.417969 L 30.671875 60.417969 L 28.621094 58.121094 L 28.367188 58.121094 Z M 19.148438 47.777344 " fill-opacity="1" fill-rule="nonzero"/><path fill="#d63900" d="M 58.328125 47.777344 L 51.15625 39.730469 L 46.804688 39.730469 L 56.023438 50.074219 L 46.804688 60.417969 L 51.414062 60.417969 L 53.460938 58.121094 L 49.109375 58.121094 Z M 58.328125 47.777344 " fill-opacity="1" fill-rule="nonzero"/><path fill="#d63900" d="M 41.554688 39.730469 L 39.890625 39.730469 L 34.128906 60.417969 L 37.585938 60.417969 L 38.226562 58.121094 L 36.433594 58.121094 Z M 41.554688 39.730469 " fill-opacity="1" fill-rule="nonzero"/><path fill="#d63900" d="M 37.585938 19.046875 L 37.585938 9.851562 L 36.433594 9.851562 L 36.433594 20.195312 C 36.433594 20.347656 36.460938 20.496094 36.519531 20.636719 C 36.578125 20.777344 36.664062 20.902344 36.769531 21.007812 C 36.878906 21.117188 37.003906 21.199219 37.144531 21.257812 C 37.285156 21.316406 37.433594 21.34375 37.585938 21.34375 L 42.195312 21.34375 L 42.195312 20.195312 L 38.738281 20.195312 C 38.585938 20.195312 38.4375 20.167969 38.296875 20.109375 C 38.15625 20.050781 38.03125 19.96875 37.921875 19.859375 C 37.816406 19.75 37.730469 19.628906 37.671875 19.488281 C 37.613281 19.34375 37.585938 19.199219 37.585938 19.046875 Z M 37.585938 19.046875 " fill-opacity="1" fill-rule="nonzero"/><path fill="#d63900" d="M 13.386719 9.851562 L 14.539062 9.851562 L 14.539062 13.300781 L 13.386719 13.300781 Z M 13.386719 9.851562 " fill-opacity="1" fill-rule="nonzero"/><path fill="#d63900" d="M 8.777344 9.851562 L 7.625 9.851562 L 7.625 21.34375 L 9.929688 21.34375 L 9.929688 20.195312 L 8.777344 20.195312 Z M 8.777344 9.851562 " fill-opacity="1" fill-rule="nonzero"/><path fill="#d63900" d="M 14.539062 15.597656 L 11.082031 15.597656 L 11.082031 16.75 L 13.386719 16.75 L 13.386719 21.34375 L 15.691406 21.34375 L 15.691406 20.195312 L 14.539062 20.195312 Z M 14.539062 15.597656 " fill-opacity="1" fill-rule="nonzero"/><path fill="#d63900" d="M 22.605469 11.003906 L 23.757812 11.003906 L 23.757812 12.152344 L 22.605469 12.152344 Z M 22.605469 11.003906 " fill-opacity="1" fill-rule="nonzero"/><path fill="#d63900" d="M 20.300781 11.003906 L 17.996094 11.003906 L 17.996094 9.851562 L 16.84375 9.851562 L 16.84375 12.152344 L 19.148438 12.152344 L 19.148438 21.34375 L 21.453125 21.34375 L 21.453125 20.195312 L 20.300781 20.195312 Z M 20.300781 11.003906 " fill-opacity="1" fill-rule="nonzero"/><path fill="#d63900" d="M 26.0625 9.871094 C 25.984375 9.863281 25.90625 9.867188 25.832031 9.878906 C 25.5625 9.933594 25.34375 10.066406 25.167969 10.277344 C 24.996094 10.488281 24.910156 10.730469 24.910156 11.003906 L 24.910156 21.34375 L 27.214844 21.34375 L 27.214844 20.195312 L 26.0625 20.195312 Z M 26.0625 9.871094 " fill-opacity="1" fill-rule="nonzero"/><path fill="#d63900" d="M 32.871094 9.863281 C 32.414062 9.90625 32.097656 10.136719 31.917969 10.554688 L 30.339844 14.21875 L 30.671875 14.984375 Z M 32.871094 9.863281 " fill-opacity="1" fill-rule="nonzero"/><path fill="#d63900" d="M 29.613281 18.351562 L 28.367188 15.453125 L 28.367188 19.277344 L 28.460938 19.492188 C 28.550781 19.703125 28.691406 19.875 28.886719 20 C 29.078125 20.125 29.289062 20.191406 29.519531 20.191406 C 29.75 20.191406 29.960938 20.125 30.152344 20 C 30.34375 19.875 30.488281 19.703125 30.578125 19.492188 L 30.78125 19.023438 C 30.742188 19.023438 30.707031 19.039062 30.671875 19.039062 C 30.441406 19.042969 30.230469 18.980469 30.039062 18.855469 C 29.847656 18.726562 29.703125 18.558594 29.613281 18.351562 Z M 29.613281 18.351562 " fill-opacity="1" fill-rule="nonzero"/><path fill="#d63900" d="M 32.976562 15.453125 L 31.824219 18.132812 L 31.824219 21.34375 L 34.128906 21.34375 L 34.128906 20.195312 L 32.976562 20.195312 Z M 32.976562 15.453125 " fill-opacity="1" fill-rule="nonzero"/></svg>