<svg xmlns="http://www.w3.org/2000/svg" xmlns:xlink="http://www.w3.org/1999/xlink" width="100" zoomAndPan="magnify" viewBox="0 0 75 74.999997" height="100" preserveAspectRatio="xMidYMid meet" version="1.0"><defs><clipPath id="d41506e669"><path d="M 53 2.230469 L 67.542969 2.230469 L 67.542969 16 L 53 16 Z M 53 2.230469 " clip-rule="nonzero"/></clipPath><clipPath id="396d869ffd"><path d="M 15 2.230469 L 67.542969 2.230469 L 67.542969 72.730469 L 15 72.730469 Z M 15 2.230469 " clip-rule="nonzero"/></clipPath><clipPath id="b6993c562a"><path d="M 55 15 L 67.542969 15 L 67.542969 19 L 55 19 Z M 55 15 " clip-rule="nonzero"/></clipPath><clipPath id="c54dcaea72"><path d="M 6.042969 5 L 48 5 L 48 24 L 6.042969 24 Z M 6.042969 5 " clip-rule="nonzero"/></clipPath></defs><g clip-path="url(#d41506e669)"><path fill="#59caff" d="M 53.871094 2.230469 L 67.535156 15.875 L 53.871094 15.875 Z M 53.871094 2.230469 " fill-opacity="1" fill-rule="nonzero"/></g><g clip-path="url(#396d869ffd)"><path fill="#0096dc" d="M 67.535156 15.875 L 67.535156 72.730469 L 15.160156 72.730469 L 15.160156 2.230469 L 53.871094 2.230469 L 53.871094 15.875 Z M 67.535156 15.875 " fill-opacity="1" fill-rule="nonzero"/></g><path fill="#006bc0" d="M 17.4375 11.328125 L 17.4375 65.910156 C 17.4375 66.207031 17.46875 66.503906 17.527344 66.796875 C 17.585938 67.089844 17.671875 67.375 17.785156 67.648438 C 17.898438 67.925781 18.039062 68.1875 18.207031 68.433594 C 18.371094 68.683594 18.5625 68.914062 18.773438 69.125 C 18.984375 69.335938 19.214844 69.523438 19.464844 69.691406 C 19.710938 69.855469 19.972656 69.996094 20.25 70.109375 C 20.527344 70.226562 20.8125 70.3125 21.105469 70.371094 C 21.398438 70.429688 21.695312 70.457031 21.992188 70.457031 L 60.703125 70.457031 C 61.003906 70.457031 61.296875 70.429688 61.589844 70.371094 C 61.886719 70.3125 62.167969 70.226562 62.445312 70.109375 C 62.722656 69.996094 62.984375 69.855469 63.234375 69.691406 C 63.480469 69.523438 63.710938 69.335938 63.921875 69.125 C 64.136719 68.914062 64.324219 68.683594 64.488281 68.433594 C 64.65625 68.1875 64.796875 67.925781 64.910156 67.648438 C 65.023438 67.375 65.113281 67.089844 65.167969 66.796875 C 65.226562 66.503906 65.257812 66.207031 65.257812 65.910156 L 65.257812 63.496094 C 17.4375 60.550781 17.4375 11.328125 17.4375 11.328125 Z M 17.4375 11.328125 " fill-opacity="1" fill-rule="nonzero"/><g clip-path="url(#b6993c562a)"><path fill="#005599" d="M 55.011719 15.875 L 67.535156 15.875 L 67.535156 18.152344 L 55.011719 18.152344 Z M 55.011719 15.875 " fill-opacity="1" fill-rule="nonzero"/></g><g clip-path="url(#c54dcaea72)"><path fill="#006bc0" d="M 6.054688 5.640625 L 47.039062 5.640625 L 47.039062 23.835938 L 6.054688 23.835938 Z M 6.054688 5.640625 " fill-opacity="1" fill-rule="nonzero"/></g><path fill="#005599" d="M 15.160156 23.835938 L 44.765625 23.835938 L 44.765625 27.246094 L 15.160156 27.246094 Z M 15.160156 23.835938 " fill-opacity="1" fill-rule="nonzero"/><path fill="#ffffff" d="M 33.378906 60.222656 L 32.238281 60.222656 C 31.867188 60.222656 31.496094 60.1875 31.128906 60.113281 C 30.761719 60.039062 30.40625 59.929688 30.0625 59.789062 C 29.71875 59.644531 29.390625 59.46875 29.078125 59.261719 C 28.769531 59.054688 28.480469 58.820312 28.214844 58.554688 C 27.953125 58.292969 27.714844 58.003906 27.507812 57.695312 C 27.300781 57.382812 27.125 57.058594 26.980469 56.710938 C 26.839844 56.367188 26.730469 56.011719 26.65625 55.644531 C 26.585938 55.28125 26.546875 54.910156 26.546875 54.539062 L 26.546875 51.125 C 26.5 50.976562 26.253906 50.839844 26.082031 50.734375 C 25.535156 50.445312 25.042969 50.085938 24.601562 49.65625 C 24.492188 49.550781 24.410156 49.425781 24.355469 49.289062 C 24.296875 49.148438 24.265625 49.003906 24.265625 48.851562 C 24.265625 48.703125 24.296875 48.554688 24.355469 48.417969 C 24.410156 48.277344 24.492188 48.15625 24.601562 48.046875 C 25.042969 47.621094 25.535156 47.257812 26.082031 46.96875 C 26.246094 46.882812 26.402344 46.777344 26.546875 46.660156 L 26.546875 43.167969 C 26.546875 42.792969 26.585938 42.425781 26.65625 42.058594 C 26.730469 41.691406 26.839844 41.335938 26.980469 40.992188 C 27.125 40.648438 27.300781 40.320312 27.507812 40.007812 C 27.714844 39.699219 27.953125 39.414062 28.214844 39.148438 C 28.480469 38.882812 28.769531 38.648438 29.078125 38.441406 C 29.390625 38.234375 29.71875 38.058594 30.0625 37.914062 C 30.40625 37.773438 30.761719 37.664062 31.128906 37.589844 C 31.496094 37.519531 31.867188 37.480469 32.238281 37.480469 L 33.378906 37.480469 L 33.378906 39.753906 L 32.238281 39.753906 C 31.785156 39.753906 31.351562 39.84375 30.933594 40.015625 C 30.515625 40.1875 30.144531 40.433594 29.824219 40.753906 C 29.503906 41.074219 29.257812 41.441406 29.085938 41.859375 C 28.910156 42.277344 28.824219 42.714844 28.824219 43.167969 L 28.824219 46.578125 C 28.824219 47.066406 28.695312 47.519531 28.429688 47.929688 C 28.167969 48.339844 27.8125 48.648438 27.367188 48.851562 C 27.8125 49.054688 28.167969 49.363281 28.429688 49.773438 C 28.695312 50.1875 28.824219 50.636719 28.824219 51.125 L 28.824219 54.539062 C 28.824219 54.988281 28.910156 55.425781 29.085938 55.84375 C 29.257812 56.261719 29.503906 56.628906 29.824219 56.949219 C 30.144531 57.269531 30.515625 57.515625 30.933594 57.6875 C 31.351562 57.863281 31.785156 57.949219 32.238281 57.949219 L 33.378906 57.949219 Z M 33.378906 60.222656 " fill-opacity="1" fill-rule="nonzero"/><path fill="#ffffff" d="M 50.457031 60.222656 L 49.316406 60.222656 L 49.316406 57.949219 L 50.457031 57.949219 C 50.910156 57.949219 51.34375 57.863281 51.761719 57.6875 C 52.183594 57.515625 52.550781 57.269531 52.871094 56.949219 C 53.191406 56.628906 53.4375 56.261719 53.613281 55.84375 C 53.785156 55.425781 53.871094 54.988281 53.871094 54.539062 L 53.871094 51.125 C 53.871094 50.636719 54 50.1875 54.265625 49.773438 C 54.53125 49.363281 54.886719 49.054688 55.332031 48.851562 C 54.886719 48.648438 54.53125 48.339844 54.265625 47.929688 C 54 47.519531 53.871094 47.066406 53.871094 46.578125 L 53.871094 43.167969 C 53.871094 42.714844 53.785156 42.277344 53.613281 41.859375 C 53.4375 41.441406 53.191406 41.074219 52.871094 40.753906 C 52.550781 40.433594 52.183594 40.1875 51.761719 40.015625 C 51.34375 39.84375 50.910156 39.753906 50.457031 39.753906 L 49.316406 39.753906 L 49.316406 37.480469 L 50.457031 37.480469 C 50.828125 37.480469 51.199219 37.519531 51.566406 37.589844 C 51.933594 37.664062 52.289062 37.773438 52.632812 37.914062 C 52.980469 38.058594 53.308594 38.234375 53.617188 38.441406 C 53.929688 38.648438 54.214844 38.882812 54.480469 39.148438 C 54.742188 39.414062 54.980469 39.699219 55.1875 40.007812 C 55.394531 40.320312 55.570312 40.648438 55.714844 40.992188 C 55.855469 41.335938 55.964844 41.691406 56.039062 42.058594 C 56.113281 42.425781 56.148438 42.792969 56.148438 43.167969 L 56.148438 46.578125 C 56.199219 46.726562 56.441406 46.867188 56.617188 46.96875 C 57.160156 47.257812 57.652344 47.621094 58.097656 48.046875 C 58.203125 48.15625 58.285156 48.277344 58.34375 48.417969 C 58.402344 48.554688 58.429688 48.703125 58.429688 48.851562 C 58.429688 49.003906 58.402344 49.148438 58.34375 49.289062 C 58.285156 49.425781 58.203125 49.550781 58.097656 49.65625 C 57.652344 50.085938 57.160156 50.445312 56.617188 50.734375 C 56.449219 50.824219 56.292969 50.925781 56.144531 51.042969 L 56.148438 54.539062 C 56.148438 54.910156 56.113281 55.28125 56.039062 55.644531 C 55.964844 56.011719 55.855469 56.367188 55.714844 56.710938 C 55.570312 57.058594 55.394531 57.382812 55.1875 57.695312 C 54.980469 58.003906 54.742188 58.292969 54.480469 58.554688 C 54.214844 58.820312 53.929688 59.054688 53.617188 59.261719 C 53.308594 59.46875 52.980469 59.644531 52.632812 59.789062 C 52.289062 59.929688 51.933594 60.039062 51.566406 60.113281 C 51.199219 60.1875 50.828125 60.222656 50.457031 60.222656 Z M 50.457031 60.222656 " fill-opacity="1" fill-rule="nonzero"/><path fill="#005599" d="M 53.871094 59.085938 C 53.332031 59.800781 52.664062 60.359375 51.863281 60.757812 C 51.0625 61.160156 50.214844 61.359375 49.316406 61.359375 L 48.179688 61.359375 L 48.179688 59.085938 L 49.316406 59.085938 L 49.316406 60.222656 L 50.457031 60.222656 C 51.722656 60.226562 52.863281 59.847656 53.871094 59.085938 Z M 53.871094 59.085938 " fill-opacity="1" fill-rule="nonzero"/><path fill="#005599" d="M 54.109375 50.035156 C 53.945312 50.378906 53.863281 50.742188 53.871094 51.125 L 53.871094 54.539062 C 53.871094 55.132812 53.722656 55.6875 53.429688 56.207031 C 53.140625 56.722656 52.738281 57.136719 52.234375 57.449219 C 52.566406 56.90625 52.734375 56.3125 52.734375 55.675781 L 52.734375 52.261719 C 52.730469 51.789062 52.851562 51.351562 53.101562 50.949219 C 53.347656 50.546875 53.6875 50.242188 54.109375 50.035156 Z M 54.109375 50.035156 " fill-opacity="1" fill-rule="nonzero"/><path fill="#005599" d="M 57.21875 50.363281 C 57.167969 50.53125 57.082031 50.675781 56.957031 50.796875 C 56.707031 51.042969 56.4375 51.269531 56.148438 51.46875 L 56.148438 51.046875 C 56.292969 50.925781 56.449219 50.824219 56.617188 50.738281 C 56.824219 50.628906 57.027344 50.503906 57.21875 50.363281 Z M 57.21875 50.363281 " fill-opacity="1" fill-rule="nonzero"/><path fill="#005599" d="M 55.328125 48.851562 C 54.828125 49.109375 54.433594 49.480469 54.144531 49.964844 C 53.710938 49.757812 53.367188 49.453125 53.113281 49.042969 C 52.859375 48.636719 52.730469 48.195312 52.734375 47.714844 L 52.734375 44.304688 C 52.730469 43.851562 52.644531 43.417969 52.472656 43 C 52.296875 42.582031 52.050781 42.214844 51.730469 41.894531 C 51.410156 41.574219 51.042969 41.328125 50.625 41.15625 C 50.207031 40.980469 49.769531 40.894531 49.316406 40.890625 L 48.179688 40.890625 L 48.179688 38.617188 L 49.316406 38.617188 L 49.316406 39.753906 L 50.457031 39.753906 C 50.910156 39.757812 51.34375 39.84375 51.761719 40.019531 C 52.179688 40.191406 52.546875 40.4375 52.867188 40.757812 C 53.1875 41.078125 53.433594 41.445312 53.609375 41.863281 C 53.78125 42.28125 53.871094 42.714844 53.871094 43.167969 L 53.871094 46.578125 C 53.871094 47.066406 54.003906 47.515625 54.265625 47.929688 C 54.53125 48.339844 54.882812 48.648438 55.328125 48.851562 Z M 55.328125 48.851562 " fill-opacity="1" fill-rule="nonzero"/><path fill="#005599" d="M 32.238281 60.222656 L 32.238281 61.359375 L 31.101562 61.359375 C 30.726562 61.359375 30.355469 61.324219 29.992188 61.25 C 29.625 61.179688 29.269531 61.070312 28.921875 60.925781 C 28.578125 60.785156 28.25 60.609375 27.9375 60.402344 C 27.628906 60.195312 27.339844 59.957031 27.074219 59.695312 C 26.8125 59.429688 26.574219 59.144531 26.367188 58.832031 C 26.160156 58.523438 25.984375 58.195312 25.84375 57.851562 C 25.699219 57.503906 25.589844 57.148438 25.519531 56.785156 C 25.445312 56.417969 25.410156 56.046875 25.410156 55.675781 L 25.410156 52.261719 C 25.363281 52.117188 25.113281 51.980469 24.941406 51.875 C 24.398438 51.582031 23.90625 51.222656 23.460938 50.796875 C 23.355469 50.6875 23.273438 50.566406 23.214844 50.425781 C 23.15625 50.285156 23.128906 50.140625 23.128906 49.988281 C 23.128906 49.839844 23.15625 49.691406 23.214844 49.550781 C 23.273438 49.414062 23.355469 49.289062 23.460938 49.183594 C 23.734375 48.921875 24.023438 48.683594 24.339844 48.476562 C 24.261719 48.683594 24.25 48.890625 24.296875 49.105469 C 24.34375 49.320312 24.445312 49.503906 24.601562 49.660156 C 25.046875 50.085938 25.539062 50.445312 26.082031 50.738281 C 26.25 50.84375 26.5 50.976562 26.546875 51.125 L 26.546875 54.539062 C 26.546875 54.910156 26.582031 55.28125 26.65625 55.648438 C 26.730469 56.011719 26.835938 56.367188 26.980469 56.714844 C 27.125 57.058594 27.300781 57.386719 27.507812 57.695312 C 27.714844 58.007812 27.949219 58.292969 28.214844 58.558594 C 28.480469 58.820312 28.765625 59.058594 29.078125 59.265625 C 29.386719 59.472656 29.714844 59.648438 30.0625 59.789062 C 30.40625 59.933594 30.761719 60.039062 31.128906 60.113281 C 31.496094 60.1875 31.867188 60.222656 32.238281 60.222656 Z M 32.238281 60.222656 " fill-opacity="1" fill-rule="nonzero"/><path fill="#005599" d="M 27.6875 39.753906 C 26.921875 40.765625 26.542969 41.902344 26.546875 43.167969 L 26.546875 46.65625 C 26.402344 46.777344 26.246094 46.878906 26.082031 46.964844 C 25.886719 47.078125 25.660156 47.214844 25.410156 47.375 L 25.410156 44.304688 C 25.410156 43.410156 25.609375 42.5625 26.011719 41.761719 C 26.410156 40.960938 26.96875 40.292969 27.6875 39.753906 Z M 27.6875 39.753906 " fill-opacity="1" fill-rule="nonzero"/><path fill="#005599" d="M 32.238281 39.753906 L 32.238281 40.890625 L 31.101562 40.890625 C 30.460938 40.890625 29.871094 41.058594 29.324219 41.394531 C 29.636719 40.886719 30.050781 40.488281 30.570312 40.195312 C 31.085938 39.902344 31.644531 39.757812 32.238281 39.753906 Z M 32.238281 39.753906 " fill-opacity="1" fill-rule="nonzero"/><path fill="#ffffff" d="M 25.410156 20.425781 C 21.804688 20.425781 20.855469 18.195312 20.855469 17.011719 L 21.992188 17.011719 L 23.132812 16.980469 C 23.144531 17.175781 23.3125 18.152344 25.410156 18.152344 C 25.558594 18.152344 25.703125 18.121094 25.84375 18.0625 C 25.984375 18.007812 26.105469 17.925781 26.214844 17.816406 C 26.320312 17.710938 26.402344 17.585938 26.460938 17.449219 C 26.519531 17.308594 26.546875 17.164062 26.546875 17.011719 C 26.546875 16.863281 26.519531 16.71875 26.460938 16.578125 C 26.402344 16.4375 26.320312 16.316406 26.214844 16.210938 C 26.105469 16.101562 25.984375 16.019531 25.84375 15.960938 C 25.703125 15.90625 25.558594 15.875 25.410156 15.875 L 24.269531 15.875 C 23.816406 15.875 23.382812 15.789062 22.964844 15.617188 C 22.542969 15.445312 22.175781 15.195312 21.855469 14.878906 C 21.535156 14.558594 21.289062 14.1875 21.113281 13.769531 C 20.941406 13.351562 20.855469 12.917969 20.855469 12.464844 C 20.855469 12.011719 20.941406 11.578125 21.113281 11.160156 C 21.289062 10.742188 21.535156 10.371094 21.855469 10.054688 C 22.175781 9.734375 22.542969 9.488281 22.964844 9.3125 C 23.382812 9.140625 23.816406 9.054688 24.269531 9.054688 C 27.871094 9.054688 28.824219 11.285156 28.824219 12.464844 L 26.546875 12.464844 C 26.535156 12.300781 26.367188 11.328125 24.269531 11.328125 C 24.121094 11.328125 23.972656 11.355469 23.835938 11.414062 C 23.695312 11.472656 23.570312 11.554688 23.464844 11.660156 C 23.359375 11.765625 23.277344 11.890625 23.21875 12.03125 C 23.160156 12.167969 23.132812 12.3125 23.132812 12.464844 C 23.132812 12.617188 23.160156 12.761719 23.21875 12.898438 C 23.277344 13.039062 23.359375 13.164062 23.464844 13.269531 C 23.570312 13.375 23.695312 13.457031 23.835938 13.515625 C 23.972656 13.574219 24.121094 13.601562 24.269531 13.601562 L 25.410156 13.601562 C 25.863281 13.601562 26.296875 13.6875 26.714844 13.863281 C 27.132812 14.035156 27.503906 14.28125 27.824219 14.601562 C 28.144531 14.921875 28.390625 15.289062 28.5625 15.707031 C 28.738281 16.125 28.824219 16.5625 28.824219 17.011719 C 28.824219 17.464844 28.738281 17.902344 28.5625 18.320312 C 28.390625 18.738281 28.144531 19.105469 27.824219 19.425781 C 27.503906 19.746094 27.132812 19.992188 26.714844 20.164062 C 26.296875 20.339844 25.863281 20.425781 25.410156 20.425781 Z M 25.410156 20.425781 " fill-opacity="1" fill-rule="nonzero"/><path fill="#08449e" d="M 27.183594 19.925781 C 26.875 20.429688 26.460938 20.832031 25.941406 21.121094 C 25.421875 21.414062 24.867188 21.558594 24.269531 21.5625 C 20.671875 21.5625 19.714844 19.332031 19.714844 18.152344 L 21.105469 18.152344 C 21.570312 19.242188 22.789062 20.425781 25.410156 20.425781 C 26.046875 20.425781 26.640625 20.257812 27.183594 19.925781 Z M 27.183594 19.925781 " fill-opacity="1" fill-rule="nonzero"/><path fill="#08449e" d="M 26.546875 17.011719 C 26.546875 17.164062 26.519531 17.308594 26.460938 17.449219 C 26.402344 17.585938 26.320312 17.710938 26.214844 17.816406 C 26.105469 17.925781 25.984375 18.007812 25.84375 18.0625 C 25.703125 18.121094 25.558594 18.152344 25.410156 18.152344 C 25.410156 18 25.378906 17.855469 25.320312 17.714844 C 25.265625 17.574219 25.183594 17.453125 25.074219 17.347656 C 24.96875 17.238281 24.84375 17.15625 24.707031 17.101562 C 24.566406 17.042969 24.421875 17.011719 24.269531 17.011719 L 23.132812 17.011719 L 23.132812 16.980469 L 22.789062 16.992188 L 22.777344 16.992188 C 22.425781 16.953125 22.085938 16.863281 21.757812 16.71875 C 21.433594 16.574219 21.136719 16.382812 20.871094 16.144531 C 20.605469 15.910156 20.378906 15.636719 20.199219 15.332031 C 20.019531 15.023438 19.886719 14.695312 19.808594 14.347656 C 19.730469 14.003906 19.707031 13.652344 19.738281 13.296875 C 19.769531 12.941406 19.855469 12.601562 19.996094 12.273438 C 20.132812 11.945312 20.320312 11.644531 20.550781 11.375 C 20.785156 11.105469 21.050781 10.878906 21.355469 10.691406 C 21.035156 11.21875 20.867188 11.789062 20.859375 12.40625 C 20.847656 13.019531 20.992188 13.597656 21.292969 14.136719 C 21.597656 14.671875 22.015625 15.097656 22.546875 15.410156 C 23.078125 15.71875 23.652344 15.875 24.269531 15.875 L 25.410156 15.875 C 25.558594 15.875 25.703125 15.90625 25.84375 15.960938 C 25.984375 16.019531 26.105469 16.101562 26.214844 16.210938 C 26.320312 16.316406 26.402344 16.4375 26.460938 16.578125 C 26.519531 16.71875 26.546875 16.863281 26.546875 17.011719 Z M 26.546875 17.011719 " fill-opacity="1" fill-rule="nonzero"/><path fill="#08449e" d="M 27.6875 13.601562 L 25.410156 13.601562 C 25.398438 13.441406 25.226562 12.464844 23.132812 12.464844 C 23.132812 12.3125 23.160156 12.167969 23.21875 12.03125 C 23.277344 11.890625 23.359375 11.765625 23.464844 11.660156 C 23.570312 11.554688 23.695312 11.472656 23.835938 11.414062 C 23.972656 11.355469 24.121094 11.328125 24.269531 11.328125 C 26.363281 11.328125 26.535156 12.304688 26.546875 12.464844 L 27.433594 12.464844 C 27.597656 12.828125 27.679688 13.207031 27.6875 13.601562 Z M 27.6875 13.601562 " fill-opacity="1" fill-rule="nonzero"/><path fill="#ffffff" d="M 35.65625 20.425781 C 32.054688 20.425781 31.101562 18.195312 31.101562 17.011719 L 32.238281 17.011719 L 33.378906 16.980469 C 33.390625 17.175781 33.5625 18.152344 35.65625 18.152344 C 35.804688 18.152344 35.953125 18.121094 36.089844 18.0625 C 36.230469 18.007812 36.355469 17.925781 36.460938 17.816406 C 36.566406 17.710938 36.648438 17.585938 36.707031 17.449219 C 36.765625 17.308594 36.792969 17.164062 36.792969 17.011719 C 36.792969 16.863281 36.765625 16.71875 36.707031 16.578125 C 36.648438 16.4375 36.566406 16.316406 36.460938 16.210938 C 36.355469 16.101562 36.230469 16.019531 36.089844 15.960938 C 35.953125 15.90625 35.804688 15.875 35.65625 15.875 L 34.515625 15.875 C 34.0625 15.875 33.628906 15.789062 33.210938 15.617188 C 32.792969 15.445312 32.421875 15.195312 32.101562 14.878906 C 31.78125 14.558594 31.535156 14.1875 31.363281 13.769531 C 31.1875 13.351562 31.101562 12.917969 31.101562 12.464844 C 31.101562 12.011719 31.1875 11.578125 31.363281 11.160156 C 31.535156 10.742188 31.78125 10.371094 32.101562 10.054688 C 32.421875 9.734375 32.792969 9.488281 33.210938 9.3125 C 33.628906 9.140625 34.0625 9.054688 34.515625 9.054688 C 38.121094 9.054688 39.070312 11.285156 39.070312 12.464844 L 36.792969 12.464844 C 36.78125 12.300781 36.613281 11.328125 34.515625 11.328125 C 34.367188 11.328125 34.222656 11.355469 34.082031 11.414062 C 33.941406 11.472656 33.820312 11.554688 33.710938 11.660156 C 33.605469 11.765625 33.523438 11.890625 33.464844 12.03125 C 33.40625 12.167969 33.378906 12.3125 33.378906 12.464844 C 33.378906 12.617188 33.40625 12.761719 33.464844 12.898438 C 33.523438 13.039062 33.605469 13.164062 33.710938 13.269531 C 33.820312 13.375 33.941406 13.457031 34.082031 13.515625 C 34.222656 13.574219 34.367188 13.601562 34.515625 13.601562 L 35.65625 13.601562 C 36.109375 13.601562 36.542969 13.6875 36.960938 13.863281 C 37.382812 14.035156 37.75 14.28125 38.070312 14.601562 C 38.390625 14.921875 38.636719 15.289062 38.8125 15.707031 C 38.984375 16.125 39.070312 16.5625 39.070312 17.011719 C 39.070312 17.464844 38.984375 17.902344 38.8125 18.320312 C 38.636719 18.738281 38.390625 19.105469 38.070312 19.425781 C 37.75 19.746094 37.382812 19.992188 36.960938 20.164062 C 36.542969 20.339844 36.109375 20.425781 35.65625 20.425781 Z M 35.65625 20.425781 " fill-opacity="1" fill-rule="nonzero"/><path fill="#08449e" d="M 37.429688 19.925781 C 37.121094 20.429688 36.707031 20.832031 36.1875 21.121094 C 35.667969 21.414062 35.113281 21.558594 34.515625 21.5625 C 30.917969 21.5625 29.960938 19.332031 29.960938 18.152344 L 31.351562 18.152344 C 31.820312 19.242188 33.035156 20.425781 35.65625 20.425781 C 36.292969 20.425781 36.886719 20.257812 37.429688 19.925781 Z M 37.429688 19.925781 " fill-opacity="1" fill-rule="nonzero"/><path fill="#08449e" d="M 36.792969 17.011719 C 36.792969 17.164062 36.765625 17.308594 36.707031 17.449219 C 36.648438 17.585938 36.566406 17.710938 36.460938 17.816406 C 36.355469 17.925781 36.230469 18.007812 36.089844 18.0625 C 35.953125 18.121094 35.804688 18.152344 35.65625 18.152344 C 35.65625 18 35.625 17.855469 35.570312 17.714844 C 35.511719 17.574219 35.429688 17.453125 35.320312 17.347656 C 35.214844 17.238281 35.09375 17.15625 34.953125 17.101562 C 34.8125 17.042969 34.667969 17.011719 34.515625 17.011719 L 33.378906 17.011719 L 33.378906 16.980469 L 33.035156 16.992188 L 33.027344 16.992188 C 32.671875 16.953125 32.332031 16.863281 32.003906 16.71875 C 31.679688 16.574219 31.382812 16.382812 31.117188 16.144531 C 30.851562 15.910156 30.628906 15.636719 30.445312 15.332031 C 30.265625 15.023438 30.136719 14.695312 30.058594 14.347656 C 29.976562 14.003906 29.953125 13.652344 29.988281 13.296875 C 30.019531 12.941406 30.101562 12.601562 30.242188 12.273438 C 30.378906 11.945312 30.566406 11.644531 30.796875 11.375 C 31.03125 11.105469 31.296875 10.878906 31.601562 10.691406 C 31.28125 11.21875 31.117188 11.789062 31.105469 12.40625 C 31.09375 13.019531 31.238281 13.597656 31.542969 14.136719 C 31.84375 14.671875 32.261719 15.097656 32.792969 15.410156 C 33.324219 15.71875 33.898438 15.875 34.515625 15.875 L 35.65625 15.875 C 35.804688 15.875 35.953125 15.90625 36.089844 15.960938 C 36.230469 16.019531 36.355469 16.101562 36.460938 16.210938 C 36.566406 16.316406 36.648438 16.4375 36.707031 16.578125 C 36.765625 16.71875 36.792969 16.863281 36.792969 17.011719 Z M 36.792969 17.011719 " fill-opacity="1" fill-rule="nonzero"/><path fill="#08449e" d="M 37.933594 13.601562 L 35.65625 13.601562 C 35.644531 13.441406 35.472656 12.464844 33.378906 12.464844 C 33.378906 12.3125 33.40625 12.167969 33.464844 12.03125 C 33.523438 11.890625 33.605469 11.765625 33.710938 11.660156 C 33.820312 11.554688 33.941406 11.472656 34.082031 11.414062 C 34.222656 11.355469 34.367188 11.328125 34.515625 11.328125 C 36.613281 11.328125 36.78125 12.304688 36.792969 12.464844 L 37.683594 12.464844 C 37.84375 12.828125 37.925781 13.207031 37.933594 13.601562 Z M 37.933594 13.601562 " fill-opacity="1" fill-rule="nonzero"/><path fill="#f2f2f2" d="M 18.578125 20.425781 L 17.4375 20.425781 C 17.066406 20.425781 16.695312 20.386719 16.328125 20.316406 C 15.960938 20.242188 15.605469 20.132812 15.261719 19.992188 C 14.914062 19.847656 14.585938 19.675781 14.277344 19.464844 C 13.964844 19.257812 13.679688 19.023438 13.414062 18.757812 C 13.148438 18.496094 12.914062 18.207031 12.707031 17.898438 C 12.496094 17.585938 12.324219 17.261719 12.179688 16.914062 C 12.035156 16.570312 11.929688 16.214844 11.855469 15.847656 C 11.78125 15.480469 11.746094 15.113281 11.746094 14.738281 C 11.746094 14.367188 11.78125 13.996094 11.855469 13.628906 C 11.929688 13.265625 12.035156 12.910156 12.179688 12.5625 C 12.324219 12.21875 12.496094 11.890625 12.707031 11.582031 C 12.914062 11.269531 13.148438 10.984375 13.414062 10.71875 C 13.679688 10.453125 13.964844 10.21875 14.277344 10.011719 C 14.585938 9.804688 14.914062 9.628906 15.261719 9.488281 C 15.605469 9.34375 15.960938 9.234375 16.328125 9.164062 C 16.695312 9.089844 17.066406 9.054688 17.4375 9.054688 L 18.578125 9.054688 L 18.578125 11.328125 L 17.4375 11.328125 C 16.984375 11.328125 16.550781 11.414062 16.132812 11.585938 C 15.714844 11.761719 15.34375 12.007812 15.023438 12.328125 C 14.703125 12.648438 14.457031 13.015625 14.285156 13.433594 C 14.109375 13.851562 14.023438 14.285156 14.023438 14.738281 C 14.023438 15.191406 14.109375 15.625 14.285156 16.042969 C 14.457031 16.460938 14.703125 16.832031 15.023438 17.152344 C 15.34375 17.472656 15.714844 17.71875 16.132812 17.890625 C 16.550781 18.0625 16.984375 18.152344 17.4375 18.152344 L 18.578125 18.152344 Z M 18.578125 20.425781 " fill-opacity="1" fill-rule="nonzero"/><path fill="#08449e" d="M 17.4375 20.425781 L 17.4375 21.5625 L 16.300781 21.5625 C 15.703125 21.5625 15.121094 21.46875 14.550781 21.285156 C 13.984375 21.105469 13.457031 20.835938 12.972656 20.488281 C 12.488281 20.140625 12.066406 19.726562 11.714844 19.246094 C 11.359375 18.761719 11.089844 18.238281 10.898438 17.675781 C 10.710938 17.109375 10.613281 16.527344 10.609375 15.929688 C 10.601562 15.332031 10.6875 14.75 10.867188 14.179688 C 11.042969 13.613281 11.304688 13.082031 11.652344 12.597656 C 11.996094 12.109375 12.40625 11.6875 12.886719 11.328125 C 12.121094 12.335938 11.742188 13.472656 11.746094 14.738281 C 11.746094 15.113281 11.78125 15.480469 11.855469 15.847656 C 11.929688 16.214844 12.035156 16.570312 12.179688 16.914062 C 12.324219 17.261719 12.496094 17.585938 12.707031 17.898438 C 12.914062 18.207031 13.148438 18.496094 13.414062 18.757812 C 13.679688 19.023438 13.964844 19.257812 14.277344 19.464844 C 14.585938 19.675781 14.914062 19.847656 15.261719 19.992188 C 15.605469 20.132812 15.960938 20.242188 16.328125 20.316406 C 16.695312 20.386719 17.066406 20.425781 17.4375 20.425781 Z M 17.4375 20.425781 " fill-opacity="1" fill-rule="nonzero"/><path fill="#08449e" d="M 17.4375 11.328125 L 17.4375 12.464844 L 16.300781 12.464844 C 15.660156 12.464844 15.070312 12.632812 14.523438 12.964844 C 14.835938 12.457031 15.25 12.058594 15.769531 11.769531 C 16.285156 11.476562 16.84375 11.328125 17.4375 11.328125 Z M 17.4375 11.328125 " fill-opacity="1" fill-rule="nonzero"/></svg>