<svg xmlns="http://www.w3.org/2000/svg" xmlns:xlink="http://www.w3.org/1999/xlink" width="50" zoomAndPan="magnify" viewBox="0 0 37.5 37.499999" height="50" preserveAspectRatio="xMidYMid meet" version="1.0"><defs><clipPath id="9435ad75ff"><path d="M 0.640625 1.28125 L 36.640625 1.28125 L 36.640625 37 L 0.640625 37 Z M 0.640625 1.28125 " clip-rule="nonzero"/></clipPath></defs><g clip-path="url(#9435ad75ff)"><path fill="#fbfbfb" d="M 18.640625 1.617188 C 8.695312 1.617188 0.640625 9.671875 0.640625 19.617188 C 0.640625 27.582031 5.792969 34.308594 12.949219 36.695312 C 13.847656 36.851562 14.183594 36.3125 14.183594 35.839844 C 14.183594 35.414062 14.164062 33.996094 14.164062 32.488281 C 9.640625 33.320312 8.46875 31.386719 8.109375 30.371094 C 7.90625 29.855469 7.03125 28.257812 6.265625 27.828125 C 5.636719 27.492188 4.734375 26.660156 6.242188 26.636719 C 7.660156 26.613281 8.671875 27.941406 9.011719 28.480469 C 10.628906 31.203125 13.21875 30.441406 14.253906 29.96875 C 14.410156 28.796875 14.882812 28.011719 15.398438 27.558594 C 11.394531 27.109375 7.210938 25.558594 7.210938 18.671875 C 7.210938 16.714844 7.90625 15.09375 9.054688 13.835938 C 8.875 13.386719 8.246094 11.539062 9.234375 9.066406 C 9.234375 9.066406 10.742188 8.59375 14.183594 10.910156 C 15.625 10.503906 17.15625 10.300781 18.683594 10.300781 C 20.214844 10.300781 21.746094 10.503906 23.183594 10.910156 C 26.628906 8.570312 28.136719 9.066406 28.136719 9.066406 C 29.125 11.539062 28.496094 13.386719 28.316406 13.835938 C 29.460938 15.09375 30.160156 16.691406 30.160156 18.671875 C 30.160156 25.578125 25.953125 27.109375 21.949219 27.558594 C 22.601562 28.121094 23.164062 29.203125 23.164062 30.890625 C 23.164062 33.296875 23.140625 35.230469 23.140625 35.839844 C 23.140625 36.3125 23.476562 36.875 24.378906 36.695312 C 25.265625 36.394531 26.125 36.027344 26.957031 35.59375 C 27.785156 35.160156 28.578125 34.664062 29.332031 34.105469 C 30.085938 33.550781 30.792969 32.9375 31.449219 32.269531 C 32.109375 31.601562 32.710938 30.890625 33.257812 30.128906 C 33.804688 29.367188 34.289062 28.566406 34.710938 27.730469 C 35.132812 26.894531 35.484375 26.03125 35.773438 25.136719 C 36.058594 24.246094 36.277344 23.335938 36.421875 22.410156 C 36.566406 21.484375 36.640625 20.554688 36.640625 19.617188 C 36.640625 9.671875 28.585938 1.617188 18.640625 1.617188 Z M 18.640625 1.617188 " fill-opacity="1" fill-rule="nonzero"/></g></svg>